<?xml version="1.0" encoding="utf-8"?>
<!DOCTYPE svg PUBLIC "-//W3C//DTD SVG 1.0//EN" "http://www.w3.org/TR/2001/REC-SVG-20010904/DTD/svg10.dtd">
<svg version="1.0" xmlns="http://www.w3.org/2000/svg" width="512px" height="512px" viewBox="0 0 512 512" preserveAspectRatio="xMidYMid meet">
 <g fill="#fffffe">
  <path d="M0 493.50 c0 -17.80 0.05 -18.50 0.95 -18.50 0.60 0 1.05 0.45 1.25 1.20 0.45 1.80 2.65 4.20 4.85 5.30 1.90 1 4.75 1 248.95 1 244.20 0 247.05 0 248.95 -1 1.05 -0.50 2.50 -1.70 3.25 -2.60 0.70 -0.90 1.55 -1.95 1.85 -2.25 0.25 -0.35 0.80 -0.65 1.20 -0.65 0.65 0 0.75 2.55 0.75 18 l0 18 -256 0 -256 0 0 -18.50z"/>
  <path d="M508.75 403.15 c-3.75 -4.35 -1.75 -4.15 -37.60 -4.15 l-31.65 0 0 -23.20 0 -23.20 22.15 -0.20 c24.65 -0.25 24.75 -0.25 32.10 -3.90 6.95 -3.35 12.80 -10.30 15.05 -17.75 0.55 -1.65 1.10 -3.05 1.30 -3.15 0.25 -0.10 0.40 -0.60 0.40 -1.15 0 -0.50 0.35 -0.95 0.75 -0.95 0.65 0 0.75 4.80 0.75 40 0 31.65 -0.15 40 -0.60 40 -0.35 0 -1.55 -1.05 -2.65 -2.35z"/>
  <path d="M69.95 403 c-3 -0.50 -3.95 -1.05 -5.85 -3.20 -1.95 -2.25 -2.75 -5.15 -2.50 -9.05 0.25 -4.10 1.65 -6.65 4.65 -8.50 l2.40 -1.50 16.55 -0.15 c18.10 -0.20 19.20 -0.05 22.15 2.55 2.45 2.15 3.15 4.10 3.15 8.75 0 5.10 -1.25 7.70 -4.75 9.85 l-2.40 1.50 -15.55 0.10 c-8.55 0.05 -16.60 -0.10 -17.85 -0.35z"/>
  <path d="M283.85 387.15 c-0.45 -16.10 -1.75 -24.05 -5.90 -36.40 -3.75 -11.05 -9.85 -22.55 -17.15 -32.25 -4.30 -5.75 -14 -15.60 -19.80 -20.10 -16.80 -12.95 -36.10 -20.90 -56.10 -23.05 l-5.40 -0.55 0 -5.40 0 -5.40 2.40 -1.20 c3.25 -1.65 9.65 -6.30 13.90 -10.10 12.05 -10.75 21.60 -27.40 24.95 -43.40 1.40 -6.90 1.70 -13.05 1.75 -33.35 l0 -19.75 1.30 -1.75 c1.95 -2.60 3.95 -6.80 5.30 -10.95 1.15 -3.70 1.15 -4 1.15 -27 0 -22.50 -0.05 -23.40 -1.15 -28.45 -3.25 -14.50 -10 -27 -19.85 -36.80 -8.35 -8.35 -18.05 -14.40 -28.75 -17.95 -10.55 -3.50 -11.05 -3.55 -37.75 -3.55 -26.35 0 -26.80 0.05 -37.10 3.30 -23.10 7.35 -41.20 25.95 -47.90 49.20 -2.85 9.85 -3 11.70 -3 35 0 20.85 0.05 21.60 1.15 25.40 1.20 4.20 3.25 8.60 5.30 11.30 l1.30 1.75 0 19 c0 25.80 0.60 31.80 4.05 42.70 5.90 18.40 18.95 34.85 35.50 44.65 3.40 2.05 3.40 2.05 3.70 4.70 0.50 3.70 -0.10 7.65 -1.15 7.95 -0.50 0.10 -2.40 0.35 -4.35 0.55 -12.05 1.15 -28.90 6.65 -40.95 13.35 -27.60 15.40 -47.15 41 -54.75 71.65 -1.25 5.05 -2.55 12.50 -2.55 14.65 0 1.25 -0.20 1.60 -1 1.60 -1 0 -1 -0.35 -1 -188.25 l0 -188.25 256 0 256 0 0 120.25 c0 106.55 -0.10 120.25 -0.75 120.25 -0.45 0 -0.75 -0.45 -0.75 -1.25 0 -0.70 -0.20 -1.25 -0.40 -1.25 -0.25 0 -0.70 -0.95 -1.05 -2.10 -2.25 -7.55 -8.50 -14.90 -15.60 -18.30 -7.95 -3.85 -3.20 -3.65 -86.45 -3.50 l-74.25 0.15 -4 1.35 c-8.60 2.95 -14.95 8.35 -18.70 16 -3.55 7.20 -3.55 6.95 -3.55 51.70 0 44.85 -0.05 44.30 3.65 51.70 4.80 9.65 14.05 15.80 25.55 17 2.50 0.25 12.95 0.50 23.20 0.50 l18.60 0 0.05 10.40 c0 5.70 0.10 15.40 0.20 21.60 0.10 6.20 0.10 12 -0.10 12.90 l-0.25 1.60 -46.65 0 -46.60 0 -0.30 -11.85z"/>

  <path d="M132.25 255.80 c-12.50 -2.05 -22.40 -6.70 -31.90 -15.05 -3.85 -3.35 -8.85 -9.30 -11.60 -13.90 -3.50 -5.75 -7.25 -15.90 -7.25 -19.45 0 -1.25 0.15 -1.40 1.70 -1.40 1.65 0 1.75 0.10 2.55 2.90 5 17.80 18.05 32.50 35.10 39.55 18.30 7.55 36.90 5.55 54.15 -5.85 5.15 -3.45 12.95 -11.05 16.15 -15.95 3.05 -4.60 6.45 -11.85 7.90 -16.75 1.15 -3.90 1.15 -3.90 2.85 -3.90 l1.75 0 -0.30 2.65 c-0.40 3.55 -1.95 8.20 -4.65 13.70 -8 16.25 -22.30 27.70 -40.65 32.50 -4 1.05 -6.25 1.30 -13.30 1.45 -5.55 0.10 -9.90 -0.05 -12.50 -0.50z"/>
 </g>
 <g fill="#e2e8f0">
  <path d="M127.40 484.15 c-0.50 -0.10 -0.90 -0.55 -0.90 -0.95 0 -0.50 0.65 -0.70 2.50 -0.70 1.80 0 2.50 0.20 2.50 0.70 0 1 -2.05 1.50 -4.10 0.95z"/>
  <path d="M214.90 484.10 c-1.70 -0.35 -1 -1.60 0.85 -1.60 1.15 0 1.75 0.25 1.75 0.70 0 0.75 -1.25 1.20 -2.60 0.90z"/>
  <path d="M448.40 484.10 c-1.70 -0.35 -1 -1.60 0.85 -1.60 1.15 0 1.75 0.25 1.75 0.70 0 0.75 -1.25 1.20 -2.60 0.90z"/>
  <path d="M5.50 483.05 c-2.25 -1.25 -3.75 -2.85 -4.75 -5.20 l-0.75 -1.85 1.25 0 c0.90 0 1.25 0.25 1.25 0.95 0 0.50 0.35 1.05 0.75 1.25 0.40 0.15 0.75 0.75 0.75 1.30 0 0.65 0.35 1 1 1 0.55 0 1 0.35 1 0.75 0 0.50 0.50 0.75 1.50 0.75 1.15 0 1.50 0.20 1.50 1 0 1.25 -1.15 1.25 -3.50 0.05z"/>
  <path d="M503 483 c0 -0.80 0.35 -1 1.50 -1 1 0 1.50 -0.25 1.50 -0.75 0 -0.45 0.45 -0.75 1.25 -0.75 1 0 1.25 -0.25 1.25 -1.25 0 -0.90 0.25 -1.25 1 -1.25 0.75 0 1 -0.35 1 -1.25 0 -0.80 0.30 -1.25 0.75 -1.25 0.95 0 0.95 0.65 -0.05 2.65 -1.15 2.25 -2.65 3.80 -4.80 4.90 -2.40 1.20 -3.40 1.20 -3.40 -0.05z"/>
  <path d="M510.15 405.25 c-0.35 -0.40 -0.65 -0.95 -0.65 -1.25 0 -0.25 -0.20 -0.50 -0.50 -0.50 -0.25 0 -0.50 -0.55 -0.50 -1.20 0 -0.90 -0.35 -1.25 -1.35 -1.45 -3.05 -0.60 -5.15 -1.60 -5.15 -2.45 0 -2.15 5.70 0.05 8.05 3.10 1.65 2.10 2.40 4.50 1.40 4.50 -0.40 -0.05 -1 -0.35 -1.30 -0.75z"/>
  <path d="M69.40 403.15 c-1 -0.15 -1.40 -0.50 -1.40 -1.20 0 -0.75 -0.35 -0.95 -1.75 -0.95 -1.70 0 -1.75 -0.10 -1.75 -1.80 l0 -1.80 1.95 1.75 c1.25 1.10 2.70 1.90 3.90 2.10 4.15 0.70 4.65 0.85 4.65 1.55 0 0.70 -2.30 0.85 -5.60 0.35z"/>
  <path d="M98 402.80 c0 -0.65 1.40 -1.30 2.90 -1.30 0.30 0 0.60 0.45 0.60 1 0 0.80 -0.35 1 -1.75 1 -1.15 0 -1.75 -0.25 -1.75 -0.70z"/>
  <path d="M102 402.05 c0 -0.25 1 -1.05 2.20 -1.75 2.30 -1.35 3.95 -3.50 4.55 -5.90 0.50 -2.05 1.75 -1.80 1.75 0.35 0 1.20 -0.25 1.75 -0.75 1.75 -0.50 0 -0.75 0.50 -0.75 1.50 0 1.15 -0.20 1.50 -1 1.50 -0.65 0 -1 0.35 -1 1 0 0.55 -0.35 1 -0.75 1 -0.40 0 -0.75 0.25 -0.75 0.50 0 0.30 -0.80 0.50 -1.75 0.50 -0.95 0 -1.75 -0.20 -1.75 -0.45z"/>
  <path d="M283.50 388.75 c0 -8.40 0.15 -10.25 0.70 -10.25 1.10 0 1.30 1.65 1.30 10.65 0 7.10 0.10 8.35 0.75 8.35 0.40 0 0.75 0.35 0.75 0.75 0 0.50 -0.55 0.75 -1.75 0.75 l-1.75 0 0 -10.25z"/>
  <path d="M374.50 398.25 c0 -0.40 0.35 -0.75 0.75 -0.75 0.40 0 0.80 -0.45 0.80 -1 0.05 -0.55 0.15 -1.20 0.20 -1.50 0.05 -0.25 0.15 -0.85 0.20 -1.25 0 -0.40 0.40 -0.75 0.80 -0.75 0.60 0 0.75 0.65 0.75 3 l0 3 -1.75 0 c-1.20 0 -1.75 -0.25 -1.75 -0.75z"/>
  <path d="M61.50 393.75 c0 -2 1.20 -2.45 1.70 -0.60 0.50 1.85 0.35 2.35 -0.70 2.35 -0.80 0 -1 -0.35 -1 -1.75z"/>
  <path d="M376.30 389.20 c-0.20 -0.75 -0.35 -4.15 -0.30 -7.65 0.05 -3.45 0.05 -11.10 0.05 -16.90 l-0.05 -10.65 -19.10 0 c-10.55 0 -19.65 -0.15 -20.25 -0.30 -0.65 -0.20 -1.15 -0.65 -1.15 -1 0 -0.60 3.35 -0.70 21.15 -0.60 l21.10 0.15 0.15 19.15 c0.10 16.10 0 19.10 -0.60 19.10 -0.40 0 -0.85 -0.60 -1 -1.30z"/>
  <path d="M62 388.25 c0 -1.50 0.15 -1.75 1.20 -1.75 1.15 0 1.20 0.10 0.65 1.75 -0.30 0.95 -0.80 1.75 -1.20 1.75 -0.40 0 -0.65 -0.65 -0.65 -1.75z"/>
  <path d="M106.25 385.05 l-1.95 -2.05 1.85 0 c2.05 0 2.55 0.60 2.25 2.75 l-0.15 1.30 -2 -2z"/>
  <path d="M65 384 c0 -0.85 0.25 -1.50 0.55 -1.50 0.30 0 0.85 -0.35 1.25 -0.75 0.45 -0.40 1.55 -0.75 2.50 -0.75 1.20 0 1.70 0.25 1.70 0.75 0 0.40 -0.30 0.75 -0.65 0.75 -0.35 0 -1.70 0.65 -3 1.50 l-2.35 1.50 0 -1.50z"/>
  <path d="M0 376.90 c0 -1.95 0.60 -3.40 1.30 -3.40 0.50 0 0.70 0.65 0.70 2.25 0 1.90 -0.15 2.25 -1 2.25 -0.70 0 -1 -0.35 -1 -1.10z"/>
  <path d="M282.80 372.15 c-0.15 -1.90 -0.75 -5.55 -1.35 -8.15 -0.55 -2.60 -1.15 -5.65 -1.30 -6.75 -0.15 -1.10 -0.45 -2.10 -0.65 -2.25 -0.50 -0.35 -2.50 -6.50 -2.50 -7.60 0 -0.50 -0.20 -0.90 -0.40 -0.90 -0.40 0 -1.60 -2.90 -1.60 -3.95 0 -0.35 -0.35 -0.95 -0.75 -1.35 -0.85 -0.85 -1.05 -4.20 -0.20 -4.20 1.10 0 5.70 12.05 7.95 20.75 1.20 4.80 3 14.85 3 17 0 0.40 -0.40 0.75 -0.95 0.75 -0.75 0 -0.95 -0.55 -1.25 -3.35z"/>
  <path d="M0.50 372.40 c0 -1.30 1.60 -9.80 2.55 -13.65 4.40 -17.70 13.55 -35.20 25.15 -48 l2.25 -2.50 0.05 1.75 c0 2.10 -0.70 3 -2.35 3 -0.95 0 -1.15 0.25 -1.15 1.50 0 1.15 -0.20 1.50 -1 1.50 -0.75 0 -1 0.35 -1 1.25 0 0.80 -0.30 1.25 -0.75 1.25 -0.40 0 -0.75 0.45 -0.75 1 0 0.55 -0.20 1 -0.50 1 -0.25 0 -0.50 0.35 -0.50 0.75 0 0.40 -0.35 0.75 -0.75 0.75 -0.40 0 -0.75 0.45 -0.75 1 0 0.55 -0.20 1 -0.50 1 -0.25 0 -0.50 0.35 -0.50 0.75 0 0.40 -0.35 0.75 -0.75 0.75 -0.45 0 -0.75 0.45 -0.75 1.25 0 0.80 -0.30 1.25 -0.75 1.25 -0.45 0 -0.75 0.45 -0.75 1.25 0 0.80 -0.30 1.25 -0.75 1.25 -0.40 0 -0.75 0.45 -0.75 1 0 1.05 -1.80 5 -2.50 5.50 -0.20 0.15 -0.50 0.85 -0.65 1.60 -0.20 0.75 -0.70 1.65 -1.10 2.10 -0.40 0.40 -0.75 1.20 -0.75 1.75 0 0.60 -0.20 1.05 -0.50 1.05 -0.25 0 -0.50 0.35 -0.50 0.75 0 0.45 -0.80 3.05 -1.75 5.85 -2.15 6.15 -3.95 13.20 -4.85 18.80 -0.50 3.35 -0.80 4.10 -1.50 4.10 -0.50 0 -0.90 -0.30 -0.90 -0.60z"/>
  <path d="M439.50 353.75 l0 -1.75 21.50 0 c17.95 0 21.50 0.10 21.50 0.70 0 0.35 -0.50 0.80 -1.10 1 -0.65 0.15 -10 0.30 -20.75 0.30 -17.15 0 -19.65 0.10 -19.65 0.75 0 0.40 -0.35 0.75 -0.75 0.75 -0.50 0 -0.75 -0.55 -0.75 -1.75z"/>
  <path d="M330.75 353.15 c-0.55 -0.10 -2.70 -0.75 -4.75 -1.50 -11.30 -3.85 -19 -13.55 -20.75 -26.05 -0.30 -2.40 -0.25 -2.60 0.70 -2.60 0.80 0 1.05 0.30 1.05 1.30 0 2.05 1.45 7.15 2.80 9.75 0.65 1.35 1.20 2.85 1.20 3.45 0 0.55 0.35 1 0.75 1 0.40 0 0.75 0.40 0.75 0.95 0 0.50 0.45 1.05 1 1.20 0.70 0.15 1 0.70 1 1.55 0 1.05 0.25 1.30 1.30 1.30 0.85 0 1.40 0.30 1.55 1 0.15 0.55 0.70 1 1.20 1 0.55 0 1.10 0.35 1.25 0.75 0.20 0.40 0.60 0.75 1 0.75 0.40 0 0.70 0.35 0.70 0.75 0 0.45 0.45 0.75 1.25 0.75 0.70 0 1.25 0.15 1.25 0.40 0 0.20 0.95 0.60 2.15 0.90 1.15 0.35 3.30 0.90 4.75 1.25 1.90 0.50 2.60 0.90 2.60 1.55 0 0.90 -0.65 1 -2.75 0.55z"/>
  <path d="M483.50 352.60 c0 -1 0.10 -1 5.90 -1.95 0.85 -0.15 1.60 -0.45 1.60 -0.70 0 -0.25 0.80 -0.45 1.80 -0.45 1.20 0 1.70 0.20 1.60 0.65 -0.30 0.75 -5.45 2.65 -8.55 3.10 -2.15 0.35 -2.35 0.25 -2.35 -0.65z"/>
  <path d="M495 348.75 c0 -0.90 0.35 -1.30 1.20 -1.55 0.70 -0.15 1.35 -0.60 1.50 -1 0.15 -0.40 0.85 -0.70 1.55 -0.70 0.90 0 1.25 -0.25 1.25 -0.90 0 -1.15 1.50 -2.60 2.65 -2.60 0.55 0 0.85 -0.40 0.85 -1.25 0 -0.70 0.25 -1.25 0.50 -1.25 0.30 0 0.50 -0.35 0.50 -0.75 0 -0.40 0.30 -0.75 0.70 -0.75 0.35 0 0.80 -0.60 0.95 -1.35 0.40 -2.15 3.05 -9.40 3.50 -9.55 0.20 -0.10 0.35 -0.60 0.35 -1.15 0 -0.50 0.35 -0.95 0.75 -0.95 0.65 0 0.75 0.35 0.45 1.90 -1.65 9.15 -6.80 17.35 -13.65 21.65 -2.75 1.75 -3.05 1.80 -3.05 0.20z"/>

  <path d="M429 334 c0 -0.85 0.35 -1 2.50 -1 2.15 0 2.50 0.15 2.50 1 0 0.85 -0.35 1 -2.50 1 -2.15 0 -2.50 -0.15 -2.50 -1z"/>
  <path d="M445 334 c0 -0.90 0.35 -1 3.75 -1 3.40 0 3.75 0.10 3.75 1 0 0.90 -0.35 1 -3.75 1 -3.40 0 -3.75 -0.10 -3.75 -1z"/>
  <path d="M461 334 c0 -0.95 0.35 -1 10.25 -1 9.90 0 10.25 0.05 10.25 1 0 0.95 -0.35 1 -10.25 1 -9.90 0 -10.25 -0.05 -10.25 -1z"/>
  <path d="M482 333.85 c0 -0.40 0.90 -0.95 2 -1.30 2.65 -0.80 5.45 -3.30 6.65 -5.95 0.90 -2.10 0.95 -3.85 0.95 -43.50 0 -28.85 -0.20 -41.80 -0.55 -42.80 -0.35 -0.80 -1.05 -2.10 -1.60 -2.85 l-1 -1.45 1.50 0 c1.40 0 1.55 0.15 1.55 1.50 0 0.95 0.25 1.50 0.70 1.50 0.40 0 0.80 0.75 1 1.90 0.15 1 0.30 20 0.30 42.20 0 39.95 -0.15 44.40 -1.65 46.05 -0.35 0.35 -0.85 1.05 -1.15 1.60 -0.30 0.50 -0.95 1.15 -1.50 1.45 -0.50 0.30 -1.05 0.70 -1.20 0.90 -0.95 1.25 -6 1.90 -6 0.75z"/>
  <path d="M269.80 332.70 c-0.15 -0.45 -0.30 -1.45 -0.30 -2.25 0 -1.10 -0.25 -1.45 -1 -1.45 -0.55 0 -1 -0.35 -1 -0.75 0 -0.40 -0.20 -0.75 -0.50 -0.75 -0.25 0 -0.50 -0.55 -0.50 -1.25 0 -0.80 -0.30 -1.25 -0.75 -1.25 -0.40 0 -0.75 -0.35 -0.75 -0.75 0 -0.40 -0.20 -0.75 -0.50 -0.75 -0.25 0 -0.50 -0.45 -0.50 -1 0 -0.55 -0.35 -1 -0.75 -1 -0.40 0 -0.75 -0.35 -0.75 -0.75 0 -0.40 -0.20 -0.75 -0.50 -0.75 -0.25 0 -0.50 -0.45 -0.50 -1 0 -0.55 -0.35 -1 -0.75 -1 -0.45 0 -0.75 -0.45 -0.75 -1.20 0 -0.90 -0.30 -1.25 -1.10 -1.40 -0.95 -0.10 -1.20 -0.50 -1.30 -2 -0.15 -1.70 -0.30 -1.90 -1.55 -1.90 -1.85 0 -3.05 -1.40 -3.05 -3.55 l0.05 -1.70 3 3.25 c4.40 4.75 9.55 11.70 13.20 17.85 1.80 2.95 3.25 5.55 3.25 5.75 0 0.75 -2.40 0.40 -2.70 -0.40z"/>
  <path d="M247.60 304.40 c-0.35 -0.35 -0.60 -1.20 -0.60 -1.95 0 -1.25 -0.20 -1.40 -1.85 -1.55 -1.55 -0.10 -1.95 -0.35 -2.05 -1.25 -0.15 -0.85 -0.50 -1.15 -1.40 -1.15 -0.75 0 -1.20 -0.30 -1.20 -0.75 0 -0.40 -0.45 -0.75 -1 -0.75 -0.55 0 -1 -0.35 -1 -0.75 0 -0.40 -0.45 -0.75 -1 -0.75 -0.55 0 -1 -0.20 -1 -0.50 0 -0.25 -0.35 -0.50 -0.75 -0.50 -0.40 0 -0.75 -0.20 -0.75 -0.50 0 -0.25 -0.35 -0.50 -0.75 -0.50 -0.40 0 -0.75 -0.20 -0.75 -0.50 0 -0.25 -0.35 -0.50 -0.75 -0.50 -0.40 0 -0.75 -0.35 -0.75 -0.75 0 -0.45 -0.45 -0.75 -1.25 -0.75 -0.70 0 -1.25 -0.20 -1.25 -0.45 0 -0.25 -0.55 -0.60 -1.25 -0.75 -0.80 -0.20 -1.25 -0.65 -1.25 -1.30 0 -0.75 -0.35 -1 -1.50 -1 -1.85 0 -6 -1.95 -6 -2.85 0 -0.40 -0.65 -0.65 -1.75 -0.65 -0.95 0 -1.75 -0.20 -1.75 -0.50 0 -0.25 -0.35 -0.50 -0.80 -0.50 -1.20 0 -5.70 -1.65 -5.70 -2.10 0 -0.25 -0.35 -0.40 -0.80 -0.40 -0.45 0 -2.65 -0.55 -4.90 -1.25 -4.95 -1.50 -12.60 -3.10 -17 -3.55 -2.75 -0.30 -3.30 -0.50 -3.30 -1.25 0 -1.15 -0.15 -1.15 6.45 -0.15 21.85 3.20 42.45 13 59.05 28.15 l2.75 2.50 -1.75 0.05 c-1 0 -2.05 -0.25 -2.40 -0.60z"/>
  <path d="M35.20 303.55 c0.65 -1.05 8.95 -7.65 13.30 -10.65 14.75 -10.05 33.30 -17.20 49.65 -19.15 2.55 -0.30 2.85 -0.25 2.85 0.60 0 0.80 -0.65 1 -4.35 1.55 -2.45 0.30 -6.65 1.15 -9.40 1.85 -2.75 0.70 -5.50 1.25 -6.10 1.25 -0.65 0 -1.15 0.20 -1.15 0.50 0 0.25 -0.90 0.65 -2 0.80 -1.10 0.20 -2 0.50 -2 0.75 0 0.25 -0.90 0.60 -2 0.75 -1.10 0.20 -2 0.50 -2 0.75 0 0.25 -0.45 0.45 -1.05 0.45 -0.55 0 -1.35 0.35 -1.75 0.75 -0.45 0.40 -1.55 0.75 -2.50 0.75 -1.10 0 -1.70 0.25 -1.70 0.65 0 0.90 -2.15 1.85 -4 1.85 -1.15 0 -1.50 0.25 -1.50 0.95 0 1 -0.90 1.55 -2.55 1.55 -0.50 0 -0.95 0.35 -0.95 0.75 0 0.40 -0.55 0.85 -1.25 1.05 -0.70 0.15 -1.25 0.50 -1.25 0.75 0 0.25 -0.35 0.45 -0.75 0.45 -0.40 0 -0.75 0.25 -0.75 0.50 0 0.30 -0.35 0.50 -0.75 0.50 -0.40 0 -0.75 0.25 -0.75 0.50 0 0.30 -0.35 0.50 -0.75 0.50 -0.40 0 -0.75 0.25 -0.75 0.50 0 0.30 -0.45 0.50 -1 0.50 -0.55 0 -1 0.35 -1 0.75 0 0.40 -0.30 0.75 -0.70 0.75 -0.40 0 -0.80 0.35 -1 0.75 -0.15 0.40 -0.70 0.75 -1.25 0.75 -0.50 0 -1.05 0.45 -1.20 1 -0.20 0.75 -0.70 1 -1.80 1 -1.30 0 -1.55 0.20 -1.55 1.15 0 0.65 -0.25 1.40 -0.60 1.75 -0.70 0.70 -4.10 0.85 -3.70 0.15z"/>
  <path d="M123 273.75 c0 -1.65 0.10 -1.75 1.75 -1.75 1.65 0 1.75 0.10 1.75 1.75 0 1.65 -0.10 1.75 -1.75 1.75 -1.65 0 -1.75 -0.10 -1.75 -1.75z"/>
  <path d="M101.50 274.35 c0 -0.40 0.55 -0.90 1.25 -1.05 1.25 -0.30 1.45 -0.95 1.40 -4.30 -0.05 -3.30 -0.10 -3.35 -3.60 -5.45 -4.70 -2.80 -10.70 -7.35 -14.30 -10.85 -3 -2.95 -3 -2.95 -1.60 -3.10 1.85 -0.20 3.35 1.15 3.35 3 0 1.25 0.15 1.40 1.70 1.40 1.10 0 2 0.35 2.40 0.90 0.35 0.50 1.05 1.05 1.55 1.25 0.45 0.15 0.85 0.65 0.85 1.10 0 0.40 0.45 0.75 1 0.75 0.55 0 1 0.25 1 0.50 0 0.30 0.35 0.50 0.75 0.50 0.40 0 0.75 0.25 0.75 0.50 0 0.30 0.35 0.50 0.75 0.50 0.40 0 0.75 0.25 0.75 0.50 0 0.30 0.35 0.50 0.75 0.50 0.40 0 0.75 0.35 0.75 0.75 0 0.45 0.45 0.75 1.20 0.75 0.70 0 1.55 0.35 2 0.75 0.40 0.40 1 0.75 1.30 0.75 0.35 0 0.50 1.70 0.40 5.40 l-0.15 5.35 -2.10 0.15 c-1.60 0.10 -2.15 0 -2.15 -0.55z"/>
  <path d="M182.50 263.25 c0 -0.90 0.35 -1.30 1.25 -1.55 0.70 -0.15 1.25 -0.50 1.25 -0.75 0 -0.25 0.35 -0.45 0.75 -0.45 0.40 0 0.75 -0.20 0.75 -0.50 0 -0.25 0.35 -0.50 0.75 -0.50 0.40 0 0.75 -0.20 0.75 -0.50 0 -0.25 0.45 -0.50 1 -0.50 0.55 0 1 -0.35 1 -0.75 0 -0.40 0.40 -0.75 0.95 -0.75 0.50 0 1.05 -0.45 1.20 -1 0.20 -0.75 0.70 -1 1.80 -1 1.30 0 1.55 -0.20 1.55 -1.15 0 -1.50 5.35 -6.85 6.90 -6.85 0.90 0 1.10 -0.30 1.10 -1.55 0 -1.10 0.25 -1.60 1 -1.80 0.55 -0.15 1 -0.70 1 -1.20 0 -0.55 0.35 -1.10 0.75 -1.25 0.40 -0.20 0.75 -0.60 0.75 -1 0 -0.40 0.25 -0.70 0.50 -0.70 0.30 0 0.50 -0.35 0.50 -0.75 0 -0.40 0.25 -0.75 0.50 -0.75 0.30 0 0.50 -0.35 0.50 -0.75 0 -0.40 0.25 -0.75 0.50 -0.75 0.30 0 0.50 -0.35 0.50 -0.75 0 -0.40 0.35 -0.75 0.75 -0.75 0.40 0 0.75 -0.45 0.75 -0.95 0 -1.75 0.60 -2.55 1.85 -2.55 1.60 0 1.45 0.40 -2 5.90 -3.60 5.85 -9.70 13 -14.75 17.45 -4.15 3.60 -12.70 9.65 -13.65 9.65 -0.25 0 -0.45 -0.55 -0.45 -1.25z"/>
  <path d="M132.50 255.95 c-6.20 -1 -9.50 -2 -9.50 -2.95 0 -0.50 0.40 -1.05 0.90 -1.15 0.80 -0.20 0.80 -0.25 0 -0.30 -1.40 -0.10 -1.05 -1.05 0.35 -1.05 0.70 0 2.90 0.45 4.85 1 2 0.55 5 1.15 6.75 1.30 2.05 0.25 3.15 0.55 3.15 1 0 0.35 -0.40 0.75 -0.85 0.85 -0.85 0.20 -0.85 0.25 0 0.30 0.45 0 0.85 0.40 0.85 0.80 0 0.85 -2 0.90 -6.50 0.20z"/>
  <path d="M147 255.80 c0 -0.40 0.40 -0.85 0.90 -0.95 0.80 -0.20 0.80 -0.25 0 -0.30 -0.50 0 -0.90 -0.40 -0.90 -0.80 0 -0.50 0.50 -0.75 1.70 -0.75 1.45 0 6.05 -1.05 13.30 -3.10 1.25 -0.35 2.55 -0.90 2.90 -1.25 0.35 -0.35 1.50 -0.65 2.50 -0.65 1.80 0.05 1.80 0.05 0.85 0.85 -0.80 0.65 -0.85 0.75 -0.10 0.50 0.65 -0.25 0.85 -0.05 0.85 0.85 0 1.20 -0.85 1.80 -2.55 1.80 -0.50 0 -0.95 0.20 -0.95 0.45 0 0.90 -12.80 4 -16.85 4.05 -1.10 0 -1.65 -0.25 -1.65 -0.70z"/>
  <path d="M118.50 252 c0 -0.25 -0.45 -0.50 -1 -0.50 -1.15 0 -3.50 -1 -3.50 -1.50 0 -0.20 -0.65 -0.50 -1.50 -0.65 -0.90 -0.20 -1.50 -0.65 -1.50 -1.10 0 -0.45 -0.45 -0.75 -1.25 -0.75 -0.70 0 -1.25 -0.20 -1.25 -0.50 0 -0.25 -0.35 -0.50 -0.75 -0.50 -0.40 0 -0.75 -0.20 -0.75 -0.50 0 -0.25 -0.35 -0.50 -0.75 -0.50 -0.40 0 -0.75 -0.35 -0.75 -0.75 0 -0.40 -0.45 -0.75 -1 -0.75 -0.75 0 -1 -0.35 -1 -1.20 0 -1.05 -0.30 -1.25 -1.60 -1.40 -1.50 -0.15 -1.65 -0.30 -1.65 -1.90 0 -1.65 0.10 -1.75 1.75 -1.75 1.55 0 1.75 0.15 1.90 1.50 l0.20 1.50 -1.20 -1.05 c-0.60 -0.60 -1.50 -1.25 -1.90 -1.45 -0.45 -0.25 -0.55 -0.20 -0.25 0.05 3.15 2.80 4.35 3.80 3.80 3.10 -0.60 -0.80 -0.50 -0.90 0.90 -0.90 1.05 0 1.55 0.25 1.55 0.75 0 0.40 0.45 0.75 1 0.75 0.55 0 1 0.25 1 0.50 0 0.30 0.35 0.50 0.75 0.50 0.40 0 0.75 0.25 0.75 0.50 0 0.30 0.35 0.50 0.75 0.50 0.40 0 0.75 0.35 0.75 0.75 0 0.45 0.45 0.75 1.20 0.75 0.70 0 1.55 0.30 1.90 0.65 0.35 0.40 1.25 0.85 2 1 0.75 0.20 1.65 0.70 2.10 1.10 0.40 0.40 1.20 0.75 1.75 0.75 0.70 0 1.05 0.30 1.05 1 0 0.70 -0.25 0.90 -0.85 0.70 -0.85 -0.25 -0.85 -0.25 0 0.30 1.35 0.90 1 1.50 -0.90 1.50 -0.95 0 -1.75 -0.20 -1.75 -0.50z m-10 -7.70 c0 -0.15 -0.75 -0.70 -1.60 -1.30 l-1.65 -1.10 1.50 1.30 c1.55 1.35 1.75 1.45 1.75 1.10z"/>
  <path d="M169.50 249.20 c0 -0.20 0.40 -0.65 0.90 -1 0.80 -0.65 0.80 -0.70 0 -0.40 -0.65 0.25 -0.90 0.05 -0.90 -0.70 0 -1.05 0.90 -1.60 2.55 -1.60 0.50 0 0.95 -0.35 0.95 -0.75 0 -0.40 0.35 -0.75 0.75 -0.75 0.40 0 0.75 -0.20 0.75 -0.50 0 -0.25 0.35 -0.50 0.75 -0.50 0.40 0 0.75 -0.20 0.75 -0.50 0 -0.25 0.45 -0.50 1 -0.50 0.55 0 1 -0.35 1 -0.75 0 -0.45 0.45 -0.75 1.25 -0.75 0.95 0 1.25 -0.25 1.25 -1.05 0 -0.85 0.25 -1 1.65 -0.85 1.40 0.15 1.60 0.35 1.75 1.80 0.15 1.45 0.05 1.60 -1.10 1.60 -0.95 0 -1.30 0.25 -1.30 1 0 0.65 -0.35 1 -1 1 -0.55 0 -1 0.35 -1 0.75 0 0.40 -0.35 0.75 -0.75 0.75 -0.40 0 -0.75 0.25 -0.75 0.50 0 0.30 -0.35 0.50 -0.75 0.50 -0.40 0 -0.75 0.25 -0.75 0.50 0 0.30 -0.55 0.50 -1.25 0.50 -0.75 0 -1.25 0.30 -1.25 0.70 0 0.40 -0.35 0.85 -0.80 1 -1.05 0.40 -3.70 0.40 -3.70 0z m13.75 -9.90 c0.30 -0.20 0.05 -0.20 -0.50 0.10 -0.55 0.30 -1.45 1.05 -2 1.70 -0.95 1.10 -0.95 1.10 0.50 -0.10 0.85 -0.70 1.75 -1.45 2 -1.70z"/>
  <path d="M78.30 243.85 c-4.85 -6.25 -9.70 -14.85 -12.10 -21.45 -0.65 -1.85 -0.60 -1.90 0.45 -1.90 1.25 0 2.35 2.20 2.35 4.65 0 0.80 0.30 1.35 0.65 1.35 0.75 0 2.85 4.05 2.85 5.50 0 0.55 0.30 1 0.70 1 0.75 0 1.30 1.05 1.30 2.55 0 0.50 0.35 0.95 0.75 0.95 0.40 0 0.75 0.30 0.75 0.70 0 0.40 0.35 0.80 0.75 1 0.40 0.15 0.75 0.60 0.75 1.05 0 0.40 0.25 0.75 0.50 0.75 0.30 0 0.50 0.45 0.50 1 0 0.55 0.35 1 0.75 1 0.45 0 0.75 0.45 0.75 1.25 0 0.90 0.25 1.25 1 1.25 0.80 0 1 0.35 1 1.75 0 0.95 -0.10 1.75 -0.20 1.75 -0.15 0 -1.70 -1.85 -3.50 -4.15z"/>
  <path d="M305 242.80 c0 -1.55 1.45 -8.25 2.20 -9.95 1.55 -3.80 2.50 -1 1.05 3.15 -0.40 1.20 -0.90 3.35 -1.05 4.85 -0.30 2.15 -0.50 2.65 -1.25 2.65 -0.55 0 -0.95 -0.30 -0.95 -0.70z"/>
  <path d="M510.50 240.30 c0 -0.65 -0.15 -1.30 -0.40 -1.40 -0.55 -0.20 -2.10 -5.50 -2.10 -7.10 0 -3.75 2.95 2.05 3.70 7.35 0.30 1.95 0.25 2.35 -0.40 2.35 -0.50 0 -0.80 -0.45 -0.80 -1.20z"/>
  <path d="M94.85 235.70 c-0.20 -0.20 -0.35 -0.90 -0.35 -1.55 0 -0.80 -0.30 -1.15 -1 -1.15 -0.65 0 -1 -0.35 -1 -1 0 -0.55 -0.35 -1 -0.75 -1 -0.50 0 -0.75 -0.50 -0.75 -1.50 0 -1.15 -0.20 -1.50 -1 -1.50 -0.75 0 -1 -0.35 -1 -1.25 0 -0.80 -0.30 -1.25 -0.75 -1.25 -0.50 0 -0.75 -0.50 -0.75 -1.50 0 -0.90 -0.25 -1.50 -0.65 -1.50 -0.80 0 -1.85 -2.05 -1.85 -3.50 0 -0.55 -0.20 -1 -0.50 -1 -0.25 0 -0.50 -0.80 -0.50 -1.75 0 -1.90 0.60 -2.25 1.50 -0.85 0.55 0.80 0.55 0.80 0.30 0 -0.20 -0.65 0 -0.90 0.70 -0.90 0.75 0 1 0.35 1 1.25 0 0.70 0.20 1.25 0.40 1.25 0.60 0 1.60 2.35 1.60 3.75 0 0.80 0.30 1.25 0.75 1.25 0.45 0 0.75 0.45 0.75 1.25 0 0.80 0.30 1.25 0.75 1.25 0.50 0 0.75 0.50 0.75 1.50 0 1.15 0.20 1.50 1 1.50 0.65 0 1 0.35 1 1 0 0.55 0.35 1 0.75 1 0.45 0 0.75 0.45 0.75 1.20 0 0.90 0.30 1.25 1.15 1.40 0.90 0.10 1.10 0.45 1.10 1.90 0 1.60 -0.15 1.75 -1.50 1.90 -0.85 0.10 -1.70 0 -1.90 -0.20z m1.40 -2.60 l-1.90 -1.85 1.70 2.10 c0.95 1.15 1.80 1.95 1.90 1.85 0.15 -0.15 -0.60 -1.05 -1.70 -2.10z"/>
  <path d="M187.20 234.80 c-0.55 -1.45 0 -3.05 1.20 -3.20 0.80 -0.15 1.10 -0.50 1.10 -1.40 0 -0.75 0.30 -1.20 0.75 -1.20 0.40 0 0.75 -0.45 0.75 -1 0 -0.55 0.25 -1 0.50 -1 0.30 0 0.50 -0.35 0.50 -0.75 0 -0.40 0.35 -0.75 0.75 -0.75 0.40 0 0.75 -0.45 0.75 -0.95 0 -1.65 0.55 -2.55 1.60 -2.55 0.75 0 0.95 0.25 0.70 0.90 -0.30 0.80 -0.25 0.80 0.40 0 0.95 -1.25 1.30 -1.10 1.30 0.55 0 1.95 -0.45 3.05 -1.30 3.05 -0.40 0 -0.70 0.50 -0.70 1.25 0 0.70 -0.20 1.25 -0.50 1.25 -0.25 0 -0.50 0.35 -0.50 0.75 0 0.40 -0.35 0.75 -0.75 0.75 -0.40 0 -0.75 0.45 -0.75 1 0 0.65 -0.35 1 -0.95 1 -0.70 0 -1.05 0.40 -1.15 1.40 -0.10 1.10 -0.40 1.40 -1.80 1.50 -1.05 0.10 -1.70 -0.10 -1.90 -0.60z"/>
  <path d="M485.50 234.30 c-0.70 -0.35 -2.10 -0.80 -3.10 -1 -2.65 -0.50 -2.55 -1.80 0.10 -1.80 1.10 0 2 0.25 2 0.50 0 0.30 0.70 0.50 1.50 0.50 1.25 0 1.50 0.20 1.50 1.25 0 1.40 -0.25 1.50 -2 0.55z"/>
  <path d="M309 229.15 c0 -0.60 3 -5 4.05 -5.95 1 -0.90 1 -0.90 0.85 1.05 -0.10 1.65 -0.35 2.05 -1.25 2.15 -0.90 0.15 -1.15 0.50 -1.15 1.65 0 1.20 -0.20 1.45 -1.25 1.45 -0.70 0 -1.25 -0.15 -1.25 -0.35z"/>
  <path d="M215 227.55 c0 -1.95 0.45 -3.05 1.30 -3.05 0.40 0 0.70 -0.55 0.70 -1.30 0 -0.75 0.65 -3.40 1.45 -5.90 1.55 -4.90 3.05 -11.45 3.05 -13.55 0 -0.95 0.25 -1.25 1.05 -1.25 1 0 1.05 0.20 0.70 2.40 -1.05 7.40 -3.20 15.15 -5.75 20.85 -1.55 3.50 -2.50 4.15 -2.50 1.80z"/>
  <path d="M505.50 228.25 c0 -0.40 -0.20 -0.75 -0.50 -0.75 -0.25 0 -0.50 -0.40 -0.50 -0.95 0 -0.50 -0.45 -1.05 -1 -1.20 -0.75 -0.20 -1 -0.70 -1 -2.05 0 -1.70 -0.05 -1.80 -1.75 -1.80 -1.20 0 -1.75 -0.25 -1.75 -0.75 0 -0.40 -0.45 -0.75 -1 -0.75 -0.55 0 -1 -0.15 -1 -0.35 0 -0.25 -1.05 -0.80 -2.30 -1.35 -1.20 -0.50 -2.50 -1.20 -2.85 -1.50 -0.70 -0.65 -7.45 -2.30 -9.45 -2.30 -1.05 0 -1.40 -0.25 -1.40 -1 0 -1.25 0.75 -1.25 5.90 -0.20 4.75 0.95 11.05 3.95 14.30 6.80 2.40 2.05 6.80 7.55 6.80 8.45 0 0.25 -0.55 0.45 -1.25 0.45 -0.80 0 -1.25 -0.30 -1.25 -0.75z"/>
  <path d="M315.90 220.35 c1.20 -1.30 5.55 -3.95 8.25 -5.10 1.85 -0.75 1.85 -0.75 1.85 0.50 0 0.95 -0.35 1.30 -1.35 1.55 -0.75 0.20 -1.70 0.65 -2.05 1.05 -0.35 0.35 -1 0.65 -1.40 0.65 -0.40 0 -0.70 0.25 -0.70 0.50 0 0.30 -0.30 0.50 -0.70 0.50 -0.40 0 -0.80 0.35 -1 0.75 -0.15 0.50 -0.95 0.75 -2.10 0.75 l-1.85 0 1.05 -1.15z"/>
  <path d="M64.05 215.50 c-1.10 -4 -2.55 -11.50 -2.55 -13.10 0 -0.55 0.40 -0.90 0.95 -0.90 0.75 0 0.95 0.50 1.20 2.90 0.20 1.55 0.90 5.10 1.60 7.85 1.40 5.65 1.55 7.25 0.55 7.25 -0.45 0 -1.10 -1.45 -1.75 -4z"/>
  <path d="M197 217.90 c0 -1.05 0.25 -1.90 0.50 -1.90 0.30 0 0.50 -0.55 0.50 -1.25 0 -0.70 0.25 -1.25 0.50 -1.25 0.30 0 0.50 -0.45 0.50 -1 0 -0.55 0.25 -2 0.60 -3.25 0.55 -2.10 0.70 -2.25 2.25 -2.25 1.45 0 1.65 0.15 1.65 1.30 0 1.85 -1.05 5.70 -1.55 5.70 -0.25 0 -0.45 0.70 -0.45 1.50 0 0.85 -0.20 1.50 -0.50 1.50 -0.25 0 -0.50 0.55 -0.50 1.25 0 1 -0.25 1.25 -1.25 1.25 -0.95 0 -1.15 -0.20 -0.90 -0.85 0.25 -0.75 0.15 -0.70 -0.50 0.10 -0.80 0.95 -0.80 0.95 -0.85 -0.85z"/>
  <path d="M327 214.85 c0 -0.80 2.40 -1.55 6.90 -2.15 2.40 -0.30 2.60 -0.25 2.60 0.65 0 0.85 -0.45 1.10 -2.35 1.30 -1.35 0.20 -3.45 0.45 -4.75 0.65 -1.95 0.25 -2.40 0.20 -2.40 -0.45z"/>
  <path d="M81.80 210.45 c-0.65 -3.35 -0.45 -3.95 1.40 -3.95 1.50 0 1.70 0.20 2 1.55 0.45 2.25 0.35 3.95 -0.15 3.95 -0.25 0 -0.60 -0.40 -0.70 -0.85 -0.20 -0.85 -0.25 -0.85 -0.30 0 -0.10 1.55 -1.90 1 -2.25 -0.70z"/>
  <path d="M222 197 c0 -3.15 0.10 -3.50 1 -3.50 0.85 0 1 0.35 1 2.40 0 3.05 -0.45 4.60 -1.30 4.60 -0.55 0 -0.70 -0.85 -0.70 -3.50z"/>
  <path d="M61.30 197.90 c-0.15 -0.65 -0.30 -10.05 -0.30 -20.90 l0 -19.75 -1.75 -2.45 c-2.10 -2.95 -2.15 -3.30 -0.50 -3.30 0.80 0 1.25 0.30 1.25 0.75 0 0.40 0.25 0.75 0.50 0.75 0.30 0 0.50 0.45 0.50 1 0 0.55 0.30 1 0.70 1 0.40 0 0.85 0.35 1 0.80 0.15 0.45 0.30 10.35 0.30 22 0 17.70 -0.10 21.20 -0.70 21.20 -0.35 0 -0.80 -0.50 -1 -1.10z"/>
  <path d="M80 170.25 c0 -1.65 0.10 -1.75 1.75 -1.75 1.65 0 1.75 0.10 1.75 1.75 0 1.65 -0.10 1.75 -1.75 1.75 -1.65 0 -1.75 -0.10 -1.75 -1.75z"/>
  <path d="M201.50 170.25 c0 -1.65 0.10 -1.75 1.75 -1.75 1.65 0 1.75 0.10 1.75 1.75 0 1.65 -0.10 1.75 -1.75 1.75 -1.65 0 -1.75 -0.10 -1.75 -1.75z"/>
  <path d="M222.50 157.25 c0 -1.20 0.25 -1.75 0.75 -1.75 0.40 0 0.75 -0.45 0.75 -1 0 -0.55 0.20 -1 0.45 -1 0.25 0 0.60 -0.55 0.75 -1.25 0.20 -0.70 0.65 -1.25 1.05 -1.25 0.40 0 0.75 -0.45 0.75 -0.95 0 -0.55 0.70 -3 1.50 -5.45 0.85 -2.50 1.50 -5.20 1.50 -6.05 0 -1.25 0.20 -1.55 1.05 -1.55 0.95 0 1 0.20 0.70 2.65 -0.75 5.45 -3.50 12.35 -6.45 16.30 -0.70 0.95 -1.30 2.05 -1.30 2.40 0 0.35 -0.35 0.65 -0.75 0.65 -0.50 0 -0.75 -0.55 -0.75 -1.75z"/>
  <path d="M55.75 148.40 c-0.95 -2.35 -2.10 -7.20 -2.50 -10.50 -0.35 -2.65 -0.30 -2.90 0.60 -2.90 0.85 0 1.05 0.45 1.30 2.90 0.20 1.60 0.75 4.35 1.30 6.10 1.15 3.55 1.35 6 0.50 6 -0.25 0 -0.80 -0.75 -1.20 -1.60z"/>
  <path d="M53 99.15 c0 -2.15 0.55 -3.65 1.30 -3.65 0.50 0 0.70 0.70 0.70 2.50 0 2.15 -0.15 2.50 -1 2.50 -0.75 0 -1 -0.35 -1 -1.35z"/>
  <path d="M229.60 92.10 c-0.30 -2.45 -1.20 -6.45 -1.90 -8.90 -0.75 -2.45 -1.60 -5.35 -1.90 -6.45 -0.30 -1.10 -0.80 -2.30 -1.15 -2.65 -0.75 -0.80 -0.85 -4.10 -0.15 -4.10 1.70 0 6.20 14.70 7.25 23.65 0.30 2.55 0.25 2.85 -0.60 2.85 -0.80 0 -1 -0.65 -1.55 -4.40z"/>
  <path d="M53.75 92.40 c0.95 -7.35 3.95 -17.30 7.10 -23.65 2.35 -4.65 6.35 -10.70 9.95 -15 l2.95 -3.50 0.15 1.65 c0.20 1.90 -0.60 3.10 -1.95 3.10 -0.70 0 -0.95 0.35 -0.95 1.25 0 0.80 -0.30 1.25 -0.75 1.25 -0.40 0 -0.75 0.45 -0.75 1 0 0.55 -0.35 1.15 -0.75 1.30 -0.40 0.20 -0.75 0.60 -0.75 1 0 0.40 -0.20 0.70 -0.50 0.70 -0.25 0 -0.50 0.35 -0.50 0.75 0 0.40 -0.20 0.75 -0.50 0.75 -0.25 0 -0.50 0.30 -0.50 0.70 0 0.40 -0.30 1.05 -0.65 1.40 -0.35 0.35 -1.05 1.60 -1.55 2.80 -0.55 1.15 -1.10 2.10 -1.30 2.10 -0.20 0 -0.50 0.65 -0.65 1.45 -0.15 0.80 -0.60 1.75 -0.95 2.10 -0.35 0.40 -0.90 1.60 -1.20 2.70 -0.30 1.10 -1.15 4.05 -1.90 6.50 -0.75 2.50 -1.60 6.25 -1.95 8.40 -0.45 3.25 -0.70 3.85 -1.50 3.85 -0.85 0 -0.90 -0.25 -0.60 -2.60z"/>
  <path d="M220.50 65.25 c0 -0.80 -0.30 -1.25 -0.75 -1.25 -0.50 0 -0.75 -0.50 -0.75 -1.50 0 -1.15 -0.20 -1.50 -1 -1.50 -0.55 0 -1 -0.35 -1 -0.75 0 -0.40 -0.20 -0.75 -0.50 -0.75 -0.25 0 -0.50 -0.40 -0.50 -0.95 0 -0.50 -0.45 -1.05 -1 -1.20 -0.70 -0.15 -1 -0.70 -1 -1.55 0 -0.95 -0.25 -1.30 -0.90 -1.30 -1 0 -3.10 -1.95 -3.10 -2.90 0 -0.35 -0.30 -0.60 -0.65 -0.60 -1.05 0 -3.35 -2.70 -3.35 -3.90 0 -0.90 -0.30 -1.10 -1.50 -1.10 -1 0 -1.50 -0.25 -1.50 -0.75 0 -0.40 -0.45 -0.75 -1 -0.75 -0.55 0 -1 -0.35 -1 -0.75 0 -0.40 -0.45 -0.75 -1 -0.75 -0.55 0 -1 -0.20 -1 -0.50 0 -0.25 -0.35 -0.50 -0.75 -0.50 -0.40 0 -0.75 -0.20 -0.75 -0.50 0 -0.25 -0.35 -0.50 -0.75 -0.50 -0.40 0 -0.75 -0.35 -0.75 -0.75 0 -0.40 -0.45 -0.75 -0.95 -0.75 -1.75 0 -2.55 -0.60 -2.55 -1.80 0 -0.65 0.20 -1.20 0.40 -1.20 0.85 0 8.55 5.10 12.45 8.25 5.50 4.40 10 9.40 14.20 15.70 1.90 2.85 3.45 5.40 3.45 5.65 0 0.20 -0.55 0.40 -1.25 0.40 -1 0 -1.25 -0.25 -1.25 -1.25z"/>
  <path d="M76.55 47.70 c1.15 -1.40 8.55 -7 12.20 -9.20 8.30 -5.05 19.40 -8.85 30.15 -10.25 2.35 -0.30 2.60 -0.25 2.60 0.65 0 0.80 -0.45 1 -2.85 1.25 -1.60 0.20 -5.15 0.90 -7.90 1.65 -2.75 0.70 -5.65 1.45 -6.50 1.55 -0.80 0.15 -1.60 0.45 -1.75 0.60 -0.50 0.65 -3.10 1.55 -4.50 1.55 -0.90 0 -1.50 0.25 -1.50 0.65 0 0.75 -3.05 2.35 -4.50 2.35 -0.55 0 -1 0.35 -1 0.75 0 0.40 -0.35 0.75 -0.75 0.75 -0.40 0 -0.75 0.20 -0.75 0.50 0 0.25 -0.55 0.60 -1.25 0.80 -0.70 0.15 -1.25 0.50 -1.25 0.75 0 0.25 -0.45 0.45 -1 0.45 -0.55 0 -1 0.35 -1 0.75 0 0.40 -0.45 0.75 -1 0.75 -0.55 0 -1 0.35 -1 0.75 0 0.45 -0.45 0.75 -1.25 0.75 -0.85 0 -1.25 0.25 -1.25 0.90 0 1.35 -1 2.10 -2.90 2.10 -1.55 0 -1.65 -0.10 -1.05 -0.80z"/>
  <path d="M185.90 35.35 c-0.35 -0.35 -1.55 -0.85 -2.65 -1.15 -1.10 -0.30 -3.95 -1.15 -6.40 -1.85 -2.40 -0.75 -6.30 -1.60 -8.60 -1.95 -3.60 -0.50 -4.25 -0.75 -4.25 -1.55 0 -0.85 0.25 -0.90 2.65 -0.60 9.10 1.20 23.35 5.60 23.35 7.20 0 0.75 -3.30 0.70 -4.10 -0.10z"/>
 </g>
 <g fill="#fcdbb8">
  <path d="M143.50 305.85 c0 -1.65 0.10 -1.80 1.90 -2.10 3.05 -0.50 10.10 -5.20 10.10 -6.70 0 -0.25 0.20 -0.55 0.45 -0.65 0.20 -0.05 0.90 -1.55 1.50 -3.30 0.85 -2.45 1.05 -4.30 1.05 -8.85 l0 -5.75 1.80 0 1.80 0 -0.20 7.65 c-0.20 5.50 -0.50 8.25 -1.10 10 -0.50 1.30 -1.10 2.35 -1.35 2.35 -0.25 0 -0.45 0.35 -0.45 0.75 0 0.40 -0.20 0.75 -0.50 0.75 -0.25 0 -0.50 0.30 -0.50 0.70 0 1.05 -3.35 3.80 -6.25 5.10 -1.35 0.65 -3.80 1.30 -5.40 1.50 l-2.85 0.35 0 -1.80z"/>
  <path d="M133 305.60 c0 -0.20 -0.65 -0.65 -1.50 -0.95 -1.15 -0.45 -1.50 -0.90 -1.50 -1.85 0 -1.05 -0.25 -1.30 -1.25 -1.30 -2.40 0 -5.25 -6.15 -5.25 -11.35 l0 -2.65 1.75 0 c1.70 0 1.75 0.05 1.75 1.90 0 1.85 2.40 7.70 3.45 8.30 0.30 0.20 0.55 0.90 0.55 1.60 0 0.90 0.25 1.20 1.15 1.20 0.65 0 1.65 0.45 2.25 1 0.60 0.55 1.30 1 1.60 1 0.25 0 0.50 0.80 0.50 1.75 0 1.65 -0.10 1.75 -1.75 1.75 -0.95 0 -1.75 -0.20 -1.75 -0.40z"/>
  <path d="M158.50 276.50 c0 -0.30 -1.25 -0.40 -3.50 -0.20 l-3.50 0.35 0 -1.70 0 -1.75 3.90 -0.60 c2.10 -0.35 4.50 -0.60 5.25 -0.60 1.30 0 1.35 0.10 1.35 2.50 l0 2.50 -1.75 0 c-0.95 0 -1.75 -0.25 -1.75 -0.50z"/>
  <path d="M126.40 275.85 c-2.85 -0.50 -2.90 -0.55 -2.90 -2.25 l0 -1.70 2.65 0.25 c7.40 0.85 7.35 0.80 7.35 2.65 0 1.70 -0.05 1.70 -2.10 1.65 -1.20 -0.05 -3.45 -0.30 -5 -0.60z"/>
  <path d="M133.25 255.65 c-3.30 -0.45 -11.95 -2.80 -15.35 -4.20 -12.55 -5.15 -23.60 -15.10 -30.05 -26.95 -3.45 -6.30 -6.70 -16.20 -7.15 -21.70 l-0.35 -3.80 1.75 0 1.75 0 0.45 3.15 0.45 3.10 18.05 0.15 18.05 0.10 0.30 2.70 c0.30 3.20 1.25 5.20 3.65 7.55 3.55 3.60 9.25 6.35 14.90 7.25 4.20 0.65 9.10 -0.30 14.10 -2.75 6.75 -3.30 10.15 -7.45 10.20 -12.35 l0 -2.40 18.25 0 18.20 0 0.35 -2.50 c0.30 -2.45 0.35 -2.50 2.05 -2.50 l1.75 0 -0.35 3.40 c-0.40 4.05 -3.50 13.65 -6.05 18.70 -6.90 13.75 -19.40 24.80 -34.10 30.10 -6.75 2.40 -12.70 3.30 -21.45 3.25 -4.35 -0.05 -8.55 -0.20 -9.40 -0.30z m13.15 -1 c-1.90 -0.10 -4.90 -0.10 -6.75 0 -1.90 0.10 -0.35 0.15 3.35 0.15 3.70 0 5.25 -0.05 3.40 -0.15z m-11 -0.50 c-0.50 -0.10 -1.30 -0.10 -1.75 0 -0.50 0.15 -0.10 0.25 0.85 0.25 0.95 0 1.35 -0.10 0.90 -0.25z m24 -1.45 c15.65 -4.55 29.80 -16.10 37.20 -30.50 2.25 -4.30 5.45 -12.80 5.40 -14.25 -0.05 -0.40 -0.80 1.55 -1.70 4.35 -3.35 10 -7.70 17.10 -14.80 24.20 -8.80 8.85 -18.85 14.30 -31.25 17 -3.15 0.70 -3.70 0.95 -1.85 0.75 1.45 -0.15 4.60 -0.85 7 -1.55z m-31.35 0.05 c-2.60 -0.70 -4.80 -1.15 -4.90 -1.05 -0.30 0.30 6.95 2.20 8.35 2.25 0.70 0 -0.85 -0.55 -3.45 -1.20z m-6.55 -1.85 c-0.70 -0.35 -2.90 -1.30 -4.95 -2.25 -11.65 -5.25 -23.45 -17.05 -28.70 -28.70 -0.95 -2.05 -1.95 -4.25 -2.25 -4.95 l-0.60 -1.25 0.30 1.25 c0.65 2.50 3.75 8.75 6.40 12.70 6.45 9.65 15.80 17.55 26.25 22.15 2.10 0.90 4.05 1.65 4.30 1.60 0.30 0 -0.05 -0.25 -0.75 -0.55z m-37.25 -40.65 c-0.45 -1.55 -0.95 -2.75 -1.05 -2.65 -0.10 0.15 0.20 1.50 0.65 3.05 0.45 1.60 0.90 2.80 1 2.65 0.10 -0.10 -0.15 -1.45 -0.60 -3.05z"/>
  <path d="M80 177 l0 -8 1.75 0 1.75 0 0 8 0 8 -1.75 0 -1.75 0 0 -8z"/>
  <path d="M200 170.75 l0 -1.75 2.50 0 2.50 0 0 1.75 0 1.75 -2.50 0 -2.50 0 0 -1.75z"/>
 </g>
 <g fill="#94a3b8">
  <path d="M5.65 482.95 c-3.95 -1.95 -7.55 -8.95 -4.65 -8.95 0.80 0 1 0.35 1 1.50 0 0.85 0.25 1.50 0.50 1.50 0.30 0 0.50 0.45 0.50 1 0 0.55 0.30 1 0.70 1 0.40 0 1.05 0.40 1.40 0.95 0.35 0.50 1.50 1.20 2.55 1.60 1.20 0.40 1.85 0.95 1.85 1.55 0 1.20 -1.25 1.15 -3.85 -0.15z"/>
  <path d="M502.50 483.15 c0 -0.65 0.55 -1.15 1.75 -1.60 1.65 -0.60 4.75 -3.20 4.75 -4 0 -0.70 1.85 -2.55 2.50 -2.55 0.85 0 0.25 2.30 -1.25 4.55 -1.35 2.05 -3.85 3.80 -6.20 4.25 -1.30 0.30 -1.55 0.15 -1.55 -0.65z"/>
  <path d="M205.50 440.50 l0 -24.50 144 0 144 0 0 24.50 0 24.50 -144 0 -144 0 0 -24.50z"/>
  <path d="M510.15 405.75 c-0.35 -0.40 -0.65 -1.15 -0.65 -1.75 0 -0.55 -0.30 -1 -0.65 -1 -1 0 -2.35 -1.65 -2.35 -2.90 0 -1.35 0.50 -1.40 2.15 -0.10 1.20 0.95 3.35 4.70 3.35 5.90 0 0.80 -1.10 0.70 -1.85 -0.15z"/>
  <path d="M284 397.75 c0 -0.95 0.25 -1.75 0.50 -1.75 0.30 0 0.50 0.35 0.50 0.75 0 0.55 0.55 0.75 2 0.75 1.65 0 2 0.15 2 1 0 0.85 -0.35 1 -2.50 1 l-2.50 0 0 -1.75z"/>
  <path d="M311 398.50 c0 -0.85 0.35 -1 2.25 -1 1.90 0 2.25 0.15 2.25 1 0 0.85 -0.35 1 -2.25 1 -1.90 0 -2.25 -0.15 -2.25 -1z"/>
  <path d="M439.50 397.75 c0 -1.20 0.25 -1.75 0.75 -1.75 0.40 0 0.75 0.35 0.75 0.75 0 0.45 0.45 0.75 1.25 0.75 0.90 0 1.25 0.25 1.25 1 0 0.85 -0.35 1 -2 1 -1.95 0 -2 -0.05 -2 -1.75z"/>
  <path d="M501 398.50 c0 -1.05 0.80 -1.25 2.90 -0.70 1.95 0.55 1.35 1.70 -0.90 1.70 -1.65 0 -2 -0.15 -2 -1z"/>
  <path d="M0 378.40 c0 -1.95 0.60 -3.40 1.30 -3.40 0.50 0 0.70 0.65 0.70 2.25 0 1.90 -0.15 2.25 -1 2.25 -0.70 0 -1 -0.35 -1 -1.10z"/>
  <path d="M283 374.50 c0 -2.25 1.15 -2.85 1.70 -0.85 0.55 2.05 0.35 2.85 -0.70 2.85 -0.85 0 -1 -0.35 -1 -2z"/>
  <path d="M0.50 373.55 c0 -2.95 2.50 -14.70 4.85 -22.65 0.15 -0.50 0.60 -0.90 1 -0.90 1 0 0.70 2.05 -1.30 9.70 -0.85 3.30 -1.85 7.95 -2.15 10.40 -0.50 3.65 -0.75 4.40 -1.50 4.40 -0.55 0 -0.90 -0.35 -0.90 -0.95z"/>
  <path d="M282.50 370.75 c0 -2.35 -2.50 -13 -4.25 -18.25 -0.95 -2.85 -1.75 -5.60 -1.75 -6.10 0 -0.50 -0.20 -0.90 -0.50 -0.90 -0.25 0 -0.50 -0.55 -0.50 -1.25 0 -0.70 -0.20 -1.25 -0.50 -1.25 -0.25 0 -0.50 -0.80 -0.50 -1.75 0 -1.10 -0.25 -1.75 -0.65 -1.75 -0.90 0 -3.35 -5.15 -3.35 -7 0 -1.15 -0.20 -1.50 -1 -1.50 -0.65 0 -1.10 -0.45 -1.30 -1.25 -0.15 -0.70 -0.50 -1.25 -0.75 -1.25 -0.25 0 -0.45 -0.55 -0.45 -1.25 0 -0.80 -0.30 -1.25 -0.75 -1.25 -0.40 0 -0.75 -0.35 -0.75 -0.75 0 -0.40 -0.20 -0.75 -0.50 -0.75 -0.25 0 -0.50 -0.35 -0.50 -0.75 0 -0.40 -0.20 -0.75 -0.50 -0.75 -0.25 0 -0.50 -0.45 -0.50 -1 0 -0.55 -0.35 -1 -0.75 -1 -0.40 0 -0.75 -0.35 -0.75 -0.75 0 -0.40 -0.20 -0.75 -0.50 -0.75 -0.25 0 -0.50 -0.40 -0.50 -0.95 0 -0.50 -0.45 -1.05 -1 -1.20 -0.70 -0.15 -1 -0.70 -1 -1.55 0 -0.95 -0.25 -1.30 -1 -1.30 -1.20 0 -1.65 -0.85 -1.40 -2.80 0.15 -1.35 0.25 -1.30 3.05 2.05 12.60 15.15 21.80 35.95 24.60 55.90 0.35 2.15 0.30 2.35 -0.70 2.35 -0.80 0 -1.05 -0.30 -1.05 -1.25z"/>
  <path d="M439 354.25 c0 -1.65 0.10 -1.75 1.75 -1.75 0.95 0 1.75 0.25 1.75 0.50 0 0.30 -0.35 0.50 -0.75 0.50 -0.45 0 -0.75 0.45 -0.75 1.25 0 0.90 -0.25 1.25 -1 1.25 -0.80 0 -1 -0.35 -1 -1.75z"/>
  <path d="M376.50 354.70 c0 -0.45 -0.45 -0.90 -1 -1.05 -1.75 -0.45 -1.20 -1.65 0.75 -1.65 1.65 0 1.75 0.10 1.75 1.75 0 1.20 -0.25 1.75 -0.75 1.75 -0.40 0 -0.75 -0.35 -0.75 -0.80z"/>
  <path d="M329.75 352.75 c-9 -2.45 -16.80 -8.05 -20.20 -14.60 -0.75 -1.50 -0.70 -1.65 0.70 -1.65 0.90 0 1.30 0.35 1.55 1.20 0.15 0.70 0.60 1.35 1 1.50 0.40 0.15 0.70 0.75 0.70 1.30 0 0.55 0.30 1 0.65 1 0.95 0 2.35 1.65 2.35 2.65 0 0.55 0.40 0.85 1.25 0.85 0.80 0 1.25 0.30 1.25 0.75 0 0.40 0.45 0.75 1 0.75 0.55 0 1 0.15 1 0.40 0 0.20 1.35 0.90 3 1.60 1.65 0.70 3 1.40 3 1.55 0 0.20 0.75 0.45 1.65 0.60 5.70 0.95 5.85 1 5.85 1.90 0 1.15 -1.15 1.20 -4.75 0.20z"/>
  <path d="M482.50 352.60 c0 -0.85 0.45 -1.05 3.50 -1.35 1.95 -0.20 3.50 -0.55 3.50 -0.80 0 -0.25 0.55 -0.45 1.25 -0.45 0.70 0 1.25 -0.20 1.25 -0.40 0 -0.55 2.30 -1.60 3.50 -1.60 0.55 0 1 -0.35 1 -0.75 0 -0.40 0.45 -0.75 1 -0.75 0.55 0 1 -0.35 1 -0.75 0 -0.55 0.55 -0.75 1.90 -0.75 l1.85 0.05 -1.75 1.50 c-3.80 3.30 -9.90 5.95 -15.40 6.70 -2.40 0.30 -2.60 0.25 -2.60 -0.65z"/>
  <path d="M7.50 345 c2.55 -6.50 4.50 -10.50 5.05 -10.50 0.25 0 0.45 0.80 0.45 1.75 0 1.20 -0.25 1.75 -0.75 1.75 -0.50 0 -0.75 0.50 -0.75 1.70 0 0.95 -0.35 2.05 -0.75 2.50 -0.40 0.40 -0.75 1.20 -0.75 1.75 0 0.60 -0.20 1.05 -0.50 1.05 -0.25 0 -0.50 0.55 -0.50 1.25 0 1 -0.25 1.25 -1.25 1.25 l-1.25 0 1 -2.50z"/>
  <path d="M503 342.30 c0 -1.15 0.25 -1.95 0.75 -2.10 0.40 -0.20 0.75 -0.60 0.75 -1 0 -0.40 0.20 -0.70 0.45 -0.70 0.25 0 0.60 -0.55 0.75 -1.25 0.20 -0.70 0.65 -1.25 1.05 -1.25 0.50 0 0.75 -0.50 0.75 -1.50 0 -1.25 0.20 -1.50 1.25 -1.50 l1.25 0 -0.75 1.90 c-1.15 2.65 -3.80 7 -5.10 8.20 l-1.15 1.05 0 -1.85z"/>
  <path d="M307.80 334.60 c-1.10 -2.10 -2.25 -6.95 -2.60 -11 -0.35 -3.45 -0.30 -3.60 0.75 -3.60 0.95 0 1.05 0.25 1.05 2.65 0 1.45 0.45 4.20 1.05 6.10 1.35 4.45 1.75 7.25 1 7.25 -0.30 0 -0.85 -0.65 -1.25 -1.40z"/>
  <path d="M332.50 334.50 c-0.95 -0.25 -1.80 -0.65 -1.90 -0.95 -0.10 -0.30 -0.60 -0.55 -1.15 -0.55 -0.70 0 -0.95 -0.35 -0.95 -1.50 0 -1.30 -0.15 -1.50 -1.45 -1.50 -1.20 0 -1.55 -0.30 -2.25 -2 -1 -2.55 -1.05 -5.50 -0.10 -5.50 0.40 0 0.90 0.70 1.05 1.65 0.90 4.05 3.50 7.05 7.20 8.30 1.20 0.40 13.85 0.55 44.50 0.55 23.55 0 43.30 0.15 43.95 0.30 0.60 0.20 1.10 0.65 1.10 1 0 0.60 -6.85 0.70 -44.10 0.65 -24.30 -0.05 -44.95 -0.25 -45.90 -0.45z"/>
  <path d="M425 334.30 c0 -0.40 0.60 -0.85 1.40 -1 1.80 -0.35 34.50 -0.35 36.25 0 0.75 0.15 1.35 0.60 1.35 1 0 0.60 -3 0.70 -19.50 0.70 -16.50 0 -19.50 -0.10 -19.50 -0.70z"/>
  <path d="M474.50 334.25 c0 -0.40 0.30 -0.75 0.65 -0.80 7.10 -0.50 8.35 -0.40 8.35 0.55 0 0.90 -0.35 1 -4.50 1 -3.65 0 -4.50 -0.15 -4.50 -0.75z"/>
  <path d="M485.50 332.60 c0 -0.25 0.60 -0.75 1.35 -1.15 2 -1.05 4.05 -4.20 4.65 -7.25 0.65 -2.95 2 -3.85 2 -1.25 0 2.45 -0.60 4.55 -1.30 4.55 -0.45 0 -0.70 0.55 -0.70 1.50 0 1.25 -0.20 1.50 -1.25 1.50 -1 0 -1.25 0.25 -1.25 1.25 0 1.10 -0.20 1.25 -1.75 1.25 -0.95 0 -1.75 -0.20 -1.75 -0.40z"/>
  <path d="M13.50 332.10 c0 -0.20 1.30 -2.55 2.95 -5.20 8.90 -14.65 21.50 -27.35 36.30 -36.65 4.65 -2.95 13.55 -7.45 18.15 -9.20 l2.60 -1.05 0 1.25 c0 0.95 -0.25 1.25 -1.05 1.25 -0.55 0 -1.35 0.35 -1.75 0.75 -0.45 0.40 -1.30 0.75 -2 0.75 -0.65 0 -1.20 0.20 -1.20 0.40 0 0.50 -3.25 2.10 -4.25 2.10 -0.40 0 -0.75 0.20 -0.75 0.40 0 0.65 -2.40 1.60 -4 1.60 -1.15 0 -1.50 0.25 -1.50 1 0 0.75 -0.35 1 -1.25 1 -0.80 0 -1.25 0.30 -1.25 0.75 0 0.40 -0.35 0.75 -0.75 0.75 -0.40 0 -0.75 0.25 -0.75 0.50 0 0.30 -0.65 0.50 -1.50 0.50 -1.15 0 -1.50 0.20 -1.50 1 0 0.55 -0.35 1 -0.75 1 -0.40 0 -0.75 0.25 -0.75 0.50 0 0.30 -0.45 0.50 -1 0.50 -0.55 0 -1 0.35 -1 0.75 0 0.40 -0.45 0.75 -1 0.75 -0.55 0 -1 0.35 -1 0.75 0 0.45 -0.45 0.75 -1.20 0.75 -0.90 0 -1.25 0.30 -1.40 1.15 -0.10 0.90 -0.50 1.15 -2 1.25 -1.70 0.15 -1.90 0.30 -1.90 1.55 0 1.65 -1.85 3.55 -3.40 3.55 -0.80 0 -1.10 0.30 -1.10 1.15 0 1.55 -2.45 3.85 -4.15 3.85 -1.20 0 -1.35 0.20 -1.35 1.80 0 1.35 -0.25 1.85 -1 2.05 -0.55 0.15 -1 0.70 -1 1.20 0 0.55 -0.35 1.10 -0.75 1.25 -0.40 0.20 -0.75 0.65 -0.75 1 0 0.40 -0.35 0.85 -0.75 1 -0.40 0.20 -0.75 0.60 -0.75 1 0 0.40 -0.35 0.70 -0.75 0.70 -0.40 0 -0.75 0.45 -0.75 1 0 0.55 -0.20 1 -0.50 1 -0.25 0 -0.50 0.35 -0.50 0.75 0 0.40 -0.20 0.75 -0.45 0.75 -0.25 0 -0.60 0.55 -0.75 1.25 -0.20 0.70 -0.55 1.25 -0.80 1.25 -0.30 0 -0.50 0.35 -0.50 0.75 0 0.40 -0.35 0.75 -0.75 0.75 -0.40 0 -0.75 0.45 -0.75 0.95 0 1.75 -0.60 2.55 -1.80 2.55 -0.65 0 -1.20 -0.20 -1.20 -0.40z"/>
  <path d="M509.15 329.40 c0.20 -1.45 0.55 -2.70 0.85 -2.80 0.25 -0.10 0.50 -0.75 0.50 -1.40 0 -0.75 0.30 -1.20 0.75 -1.20 0.95 0 0.95 0.25 -0.05 4.55 -0.55 2.45 -1 3.45 -1.55 3.45 -0.65 0 -0.75 -0.45 -0.50 -2.60z"/>
  <path d="M250.55 307.30 c-1.65 -1.65 -2.10 -2.50 -1.95 -3.55 l0.15 -1.35 2.35 2.10 c1.30 1.15 2.85 2.75 3.40 3.55 l1.05 1.45 -1.40 0 c-1.05 0 -2.05 -0.60 -3.60 -2.20z"/>
  <path d="M244 300.25 c0 -1.05 -0.25 -1.25 -1.50 -1.25 -1 0 -1.50 -0.25 -1.50 -0.75 0 -0.40 -0.45 -0.75 -1 -0.75 -0.55 0 -1 -0.35 -1 -0.75 0 -0.40 -0.45 -0.75 -1 -0.75 -0.55 0 -1 -0.20 -1 -0.50 0 -0.25 -0.35 -0.50 -0.75 -0.50 -0.40 0 -0.75 -0.20 -0.75 -0.50 0 -0.25 -0.35 -0.50 -0.75 -0.50 -0.40 0 -0.75 -0.20 -0.75 -0.50 0 -0.25 -0.35 -0.50 -0.75 -0.50 -0.40 0 -0.75 -0.20 -0.75 -0.50 0 -0.25 -0.35 -0.50 -0.75 -0.50 -0.40 0 -0.75 -0.35 -0.75 -0.75 0 -0.45 -0.45 -0.75 -1.25 -0.75 -0.80 0 -1.25 -0.30 -1.25 -0.75 0 -0.40 -0.45 -0.75 -1 -0.75 -1.85 0 -3.50 -1.10 -3.50 -2.35 0 -0.60 0.20 -1.15 0.45 -1.15 1.50 0 16.35 9.90 21.05 14 l2.25 1.95 -1.85 0.05 c-1.70 0 -1.90 -0.15 -1.90 -1.25z"/>

  <path d="M218.15 284.90 c-0.65 -0.30 -1.15 -0.75 -1.15 -1 0 -0.20 -0.55 -0.40 -1.25 -0.40 -0.70 0 -1.25 -0.20 -1.25 -0.50 0 -0.25 -0.55 -0.50 -1.25 -0.50 -1 0 -1.25 -0.25 -1.25 -1.25 l0 -1.25 2.65 1.05 c4.85 1.90 7.85 3.40 7.85 3.90 0 0.70 -2.90 0.65 -4.35 -0.05z"/>
  <path d="M74.10 280.40 c0.50 -1.60 17.55 -5.95 26.10 -6.70 3.25 -0.30 4 -0.50 4.15 -1.25 0.45 -1.65 1.65 -1.10 1.65 0.75 l0 1.65 -5.10 0.60 c-6.50 0.75 -13.30 2.15 -19.50 4.05 -5.15 1.60 -7.60 1.90 -7.30 0.90z"/>
  <path d="M206 280.15 c-1.25 -0.45 -2.35 -0.95 -2.50 -1.15 -0.15 -0.20 -1.05 -0.50 -2 -0.60 -0.95 -0.15 -4.60 -0.80 -8.10 -1.45 -5.40 -1 -6.40 -1.35 -6.40 -2.10 0 -0.80 0.30 -0.85 2.40 -0.60 8.45 1.20 21.60 4.85 22 6.15 0.25 0.85 -2.60 0.70 -5.40 -0.25z"/>
  <path d="M182 274.50 c0 -1.05 1.15 -1.30 3.40 -0.70 2.05 0.55 1.30 1.70 -1.15 1.70 -1.90 0 -2.25 -0.15 -2.25 -1z"/>
  <path d="M158.50 273.25 c0 -1.65 0.10 -1.75 1.75 -1.75 1.65 0 1.75 0.10 1.75 1.75 0 1.20 -0.25 1.75 -0.75 1.75 -0.40 0 -0.75 -0.35 -0.75 -0.75 0 -0.40 -0.40 -0.75 -0.85 -0.70 -0.55 0 -0.65 0.15 -0.25 0.30 0.85 0.35 0.75 1.15 -0.15 1.15 -0.50 0 -0.75 -0.55 -0.75 -1.75z"/>
  <path d="M104.50 266.35 c0 -0.30 -1.65 -1.55 -3.65 -2.75 -4.10 -2.45 -9 -6 -12.35 -9.05 l-2.25 -2 1.80 -0.05 c1.90 0 2.95 0.70 2.95 2.10 0 0.65 0.40 0.90 1.25 0.90 0.90 0 1.25 0.25 1.25 1 0 0.75 0.35 1 1.25 1 0.70 0 1.25 0.25 1.25 0.50 0 0.30 0.35 0.50 0.75 0.50 0.40 0 0.75 0.45 0.75 1 0 0.80 0.35 1 1.50 1 0.85 0 1.50 0.20 1.50 0.45 0 0.25 0.55 0.60 1.25 0.75 0.70 0.20 1.25 0.65 1.25 1.05 0 0.45 0.50 0.75 1.25 0.75 1.10 0 1.25 0.20 1.25 1.75 0 0.95 -0.20 1.75 -0.50 1.75 -0.25 0 -0.50 -0.30 -0.50 -0.65z"/>
  <path d="M179.50 265.30 c0 -1.45 0.25 -1.80 1.65 -2.35 0.85 -0.35 1.90 -0.95 2.25 -1.30 0.35 -0.35 1 -0.65 1.40 -0.65 0.40 0 0.70 -0.20 0.70 -0.50 0 -0.25 0.35 -0.50 0.75 -0.50 0.40 0 0.75 -0.20 0.75 -0.50 0 -0.25 0.35 -0.50 0.75 -0.50 0.40 0 0.75 -0.20 0.75 -0.50 0 -0.25 0.40 -0.50 0.95 -0.50 0.50 0 1.05 -0.45 1.20 -1 0.15 -0.55 0.70 -1 1.25 -1 0.55 0 1.10 -0.45 1.25 -1 0.20 -0.75 0.70 -1 2.05 -1 1 0 1.80 0.10 1.80 0.25 0 0.55 -7.85 6.40 -11.80 8.85 -2.30 1.40 -4.20 2.85 -4.20 3.25 0 0.35 -0.35 0.65 -0.75 0.65 -0.50 0 -0.75 -0.50 -0.75 -1.70z"/>
  <path d="M130.55 255.70 c-4.75 -0.85 -11.05 -2.75 -11.05 -3.25 0 -0.25 -0.55 -0.45 -1.25 -0.45 -1 0 -1.25 -0.25 -1.25 -1.20 l0 -1.20 4.70 1.65 c4.15 1.50 8.30 2.50 14.45 3.50 1.15 0.20 1.85 0.55 1.85 1 0 0.95 -2.30 0.90 -7.45 -0.05z"/>
  <path d="M148 255.85 c0 -0.55 0.65 -0.90 1.90 -1.10 4.80 -0.80 9.70 -2 13.25 -3.25 l3.85 -1.45 0 1.25 c0 0.95 -0.25 1.20 -1.20 1.20 -0.65 0 -1.30 0.20 -1.40 0.50 -0.20 0.65 -8.80 2.80 -13 3.25 -2.90 0.30 -3.40 0.25 -3.40 -0.40z"/>
  <path d="M168 250.05 c0 -0.25 1.65 -1.35 3.65 -2.45 4.50 -2.50 9.25 -5.95 13 -9.55 l2.90 -2.75 -0.15 1.95 c-0.15 1.90 -0.25 2 -2 2.15 -1.65 0.15 -1.85 0.30 -2 1.75 -0.10 1.20 -0.40 1.65 -1.25 1.75 -0.65 0.10 -1.15 0.50 -1.15 0.90 0 0.40 -0.45 0.70 -1 0.70 -0.55 0 -1 0.35 -1 0.75 0 0.40 -0.35 0.75 -0.75 0.75 -0.40 0 -0.75 0.25 -0.75 0.50 0 0.30 -0.55 0.50 -1.25 0.50 -0.80 0 -1.25 0.30 -1.25 0.75 0 0.50 -0.55 0.75 -1.75 0.75 -1.40 0 -1.75 0.20 -1.75 1 0 0.80 -0.35 1 -1.75 1 -0.95 0 -1.75 -0.20 -1.75 -0.45z"/>
  <path d="M80.95 247 c-4.10 -4.90 -10.45 -14.40 -10.45 -15.70 0 -0.15 0.55 -0.30 1.20 -0.30 1.20 0 1.80 0.80 1.80 2.55 0 0.50 0.35 0.95 0.75 0.95 0.40 0 0.85 0.55 1.05 1.25 0.15 0.70 0.50 1.25 0.75 1.25 0.25 0 0.45 0.45 0.45 1 0 0.55 0.35 1 0.75 1 0.40 0 0.75 0.35 0.75 0.75 0 0.40 0.25 0.75 0.50 0.75 0.30 0 0.50 0.40 0.50 0.95 0 0.50 0.45 1.05 1 1.20 0.60 0.15 1 0.70 1 1.30 0 0.60 0.30 1.05 0.70 1.05 1.15 0 1.90 1.35 1.70 3.05 l-0.15 1.65 -2.30 -2.70z"/>
  <path d="M110 247.75 c0 -0.45 -0.45 -0.75 -1.25 -0.75 -0.70 0 -1.25 -0.20 -1.25 -0.50 0 -0.25 -0.35 -0.50 -0.75 -0.50 -0.40 0 -0.75 -0.35 -0.75 -0.75 0 -0.40 -0.45 -0.75 -1 -0.75 -0.55 0 -1 -0.35 -1 -0.75 0 -0.40 -0.40 -0.75 -0.95 -0.75 -1.30 0 -2.15 -1.20 -1.95 -2.70 0.15 -1.25 0.20 -1.25 3.50 1.45 1.85 1.45 4.65 3.45 6.15 4.35 1.50 0.90 2.75 1.80 2.75 2 0 0.25 -0.80 0.40 -1.75 0.40 -1.20 0 -1.75 -0.25 -1.75 -0.75z"/>
  <path d="M202.60 246.75 c0.15 -1.65 0.35 -2.05 1.30 -2.15 0.80 -0.15 1.10 -0.50 1.10 -1.40 0 -0.75 0.30 -1.20 0.75 -1.20 0.40 0 0.75 -0.45 0.75 -1 0 -0.80 0.35 -1 1.55 -1 l1.50 0 -1.50 2.15 c-0.85 1.15 -2.45 3.10 -3.55 4.35 l-2 2.25 0.10 -2z"/>
  <path d="M305.25 242.15 c1.55 -14.30 10.35 -24.90 23.60 -28.35 3.85 -1 4.15 -1 4.15 0.10 0 0.65 -0.80 1.10 -3.35 1.75 -1.90 0.45 -3.90 0.85 -4.50 0.85 -0.70 0 -1.15 0.30 -1.15 0.75 0 0.45 -0.45 0.75 -1.25 0.75 -0.80 0 -1.25 0.30 -1.25 0.75 0 0.40 -0.35 0.75 -0.75 0.75 -0.40 0 -0.75 0.25 -0.75 0.50 0 0.30 -0.40 0.50 -0.95 0.50 -0.50 0 -1.05 0.45 -1.20 1 -0.15 0.70 -0.70 1 -1.55 1 -1.05 0 -1.30 0.25 -1.30 1.30 0 0.85 -0.30 1.40 -1 1.55 -0.55 0.15 -1 0.70 -1 1.25 0 0.55 -0.45 1.10 -1 1.25 -0.55 0.15 -1 0.70 -1 1.20 0 0.85 -1.95 5.40 -2.55 5.95 -0.40 0.35 -1.45 6.60 -1.45 8.70 0 1.50 -0.15 1.80 -1.05 1.80 -1 0 -1.05 -0.15 -0.70 -3.35z"/>
  <path d="M491.70 242.65 c-0.80 -4.45 -3.90 -8 -8 -9.15 -1.35 -0.40 -2.20 -0.90 -2.20 -1.40 0 -0.60 0.50 -0.70 2.35 -0.45 1.30 0.15 2.45 0.50 2.55 0.80 0.10 0.30 0.60 0.55 1.15 0.55 0.50 0 0.95 0.20 0.95 0.45 0 0.25 0.45 0.55 1 0.70 0.60 0.15 1 0.70 1 1.30 0 0.60 0.30 1.05 0.65 1.05 0.95 0 1.90 2.30 2.20 5.40 0.25 2.15 0.15 2.60 -0.50 2.60 -0.55 0 -0.90 -0.65 -1.15 -1.85z"/>
  <path d="M324 242.25 c0 -1.85 1.35 -5.75 2 -5.75 0.20 0 0.50 -0.45 0.65 -1.05 0.15 -0.55 0.75 -1.15 1.30 -1.30 0.60 -0.15 1.05 -0.45 1.05 -0.70 0 -0.25 0.45 -0.45 0.95 -0.45 0.55 0 1.05 -0.25 1.15 -0.55 0.10 -0.30 1.35 -0.70 2.80 -0.85 2.10 -0.20 2.60 -0.10 2.60 0.55 0 0.50 -0.85 0.95 -2.40 1.35 -4.15 0.95 -7.35 4.45 -8.35 8.90 -0.45 2.20 -1.75 2.15 -1.75 -0.15z"/>
  <path d="M510.50 240.80 c0 -0.65 -0.25 -1.30 -0.50 -1.40 -0.30 -0.10 -0.65 -1.35 -0.85 -2.80 -0.25 -2.15 -0.15 -2.60 0.50 -2.60 0.70 0 1.10 1.20 2.10 6.40 0.25 1.25 0.15 1.60 -0.45 1.60 -0.50 0 -0.80 -0.45 -0.80 -1.20z"/>
  <path d="M209.50 237.25 c0 -0.95 0.20 -1.75 0.45 -1.75 0.25 0 0.60 -0.55 0.75 -1.25 0.20 -0.70 0.65 -1.25 1.05 -1.25 0.40 0 0.75 -0.45 0.75 -1 0 -1.45 2.10 -5.50 2.85 -5.50 0.40 0 0.65 -0.60 0.65 -1.50 0 -1.40 0.90 -4 1.55 -4.50 0.15 -0.15 0.45 -0.90 0.55 -1.75 0.15 -0.80 0.85 -3.65 1.60 -6.25 0.70 -2.60 1.45 -6.15 1.60 -7.85 0.30 -2.70 0.50 -3.15 1.30 -3.15 0.90 0 0.95 0.25 0.65 2.65 -1 7.65 -3.45 16.35 -6.55 23.20 -2.10 4.55 -6.20 11.65 -6.80 11.65 -0.20 0 -0.40 -0.80 -0.40 -1.75z"/>
  <path d="M93.85 234.65 c-0.20 -0.15 -0.35 -0.75 -0.35 -1.25 0 -0.50 -0.35 -0.90 -0.75 -0.90 -0.40 0 -0.75 -0.45 -0.75 -1 0 -0.55 -0.35 -1 -0.75 -1 -0.40 0 -0.75 -0.35 -0.75 -0.75 0 -0.40 -0.20 -0.75 -0.50 -0.75 -0.25 0 -0.50 -0.55 -0.50 -1.25 0 -0.80 -0.30 -1.25 -0.75 -1.25 -0.50 0 -0.75 -0.55 -0.75 -1.75 0 -0.95 0.15 -1.75 0.40 -1.75 0.20 0.05 1.65 2 3.20 4.40 1.60 2.40 3.50 5.10 4.20 6 l1.35 1.60 -1.50 0 c-0.80 0 -1.65 -0.15 -1.80 -0.35z"/>
  <path d="M188.85 233.90 c5.55 -6.90 10.15 -15.30 12.15 -22.35 1.20 -4.10 2.50 -5.45 2.50 -2.60 0 1.95 -2.40 9.55 -3 9.55 -0.30 0 -0.50 0.45 -0.50 1 0 1.45 -2.10 5.50 -2.85 5.50 -0.35 0 -0.65 0.55 -0.65 1.25 0 0.80 -0.30 1.25 -0.75 1.25 -0.45 0 -0.75 0.45 -0.75 1.25 0 0.80 -0.30 1.25 -0.75 1.25 -0.40 0 -0.75 0.45 -0.75 1 0 0.55 -0.30 1 -0.70 1 -0.40 0 -0.80 0.50 -0.90 1.15 -0.10 0.85 -0.55 1.15 -1.85 1.25 -1.40 0.15 -1.65 0.05 -1.20 -0.50z"/>
  <path d="M506.65 230.75 c-0.50 -1.25 -1.05 -2.25 -1.25 -2.25 -0.25 0 -0.40 -0.35 -0.40 -0.75 0 -0.40 -0.20 -0.75 -0.50 -0.75 -0.25 0 -0.50 -0.55 -0.50 -1.25 0 -0.85 -0.25 -1.25 -0.90 -1.25 -1 0 -3.60 -2.45 -3.60 -3.40 0 -0.35 -0.45 -0.60 -1 -0.60 -0.55 0 -1 -0.20 -1 -0.50 0 -0.25 -0.35 -0.50 -0.75 -0.50 -0.45 0 -0.75 -0.45 -0.75 -1.25 0 -0.70 0.20 -1.25 0.45 -1.25 0.25 0 1.75 0.95 3.35 2.15 3.70 2.75 7.70 7.80 9.45 12 0.75 1.85 0.75 1.85 -0.45 1.85 -0.95 0 -1.40 -0.45 -2.15 -2.25z"/>
  <path d="M67.70 225.65 c-2.65 -5.95 -5.10 -15.25 -5.95 -22.25 -0.30 -2.65 -0.25 -2.90 0.65 -2.90 0.80 0 1 0.50 1.30 3.15 0.15 1.70 0.75 4.95 1.30 7.25 0.55 2.30 1 4.70 1 5.40 0 0.65 0.20 1.20 0.50 1.20 0.25 0 0.65 0.90 0.80 2 0.20 1.10 0.50 2 0.75 2 0.25 0 0.45 0.45 0.45 1.05 0 0.55 0.35 1.35 0.75 1.75 0.85 0.85 1.05 4.20 0.20 4.20 -0.25 0 -1.05 -1.30 -1.75 -2.85z"/>
  <path d="M83 214.75 c-1.60 -5.05 -1.90 -7.75 -0.85 -7.75 0.35 0 1.50 2.70 2.65 6.25 2 6.25 2 6.25 0.90 6.25 -1 0 -1.35 -0.60 -2.70 -4.75z"/>
  <path d="M489.40 216.15 c-1.10 -0.30 -1.20 -2.15 -0.15 -2.15 1.25 0 4.25 1.40 4.25 1.95 0 0.55 -2.45 0.65 -4.10 0.20z"/>
  <path d="M484.50 214 c0 -1.05 0.50 -1.20 2.40 -0.70 1.80 0.50 1.35 1.70 -0.65 1.70 -1.40 0 -1.75 -0.20 -1.75 -1z"/>
  <path d="M333.50 213.80 c0 -0.35 0.50 -0.80 1.15 -1 1.45 -0.40 146.75 -0.40 148.25 0 0.60 0.20 1.10 0.65 1.10 1 0 0.60 -11.50 0.70 -75.25 0.70 -63.75 0 -75.25 -0.10 -75.25 -0.70z"/>
  <path d="M222 176.50 c0 -17.45 0.10 -20 0.75 -20 0.45 0 0.75 -0.45 0.75 -1.25 0 -0.70 0.25 -1.25 0.50 -1.25 0.30 0 0.50 -0.35 0.50 -0.75 0 -0.40 0.35 -0.75 0.75 -0.75 0.45 0 0.75 -0.45 0.75 -1.20 0 -0.70 0.35 -1.55 0.75 -2 0.40 -0.40 0.75 -1.20 0.75 -1.75 0 -0.80 0.30 -1.05 1.25 -1.05 l1.25 0 -1.05 2.60 c-0.55 1.45 -1.90 3.95 -3 5.60 l-1.95 2.90 0 18.35 c0 10.05 -0.15 18.80 -0.30 19.45 -0.20 0.60 -0.65 1.10 -1 1.10 -0.60 0 -0.70 -3.30 -0.70 -20z"/>
  <path d="M61.50 158.40 c0 -0.30 -1 -2.05 -2.25 -3.85 -1.20 -1.80 -2.55 -4.15 -3 -5.15 -0.75 -1.90 -0.75 -1.90 0.45 -1.90 0.95 0 1.40 0.45 2.15 2.25 0.50 1.25 1.05 2.25 1.30 2.25 0.20 0 0.35 0.35 0.35 0.75 0 0.40 0.25 0.75 0.50 0.75 0.30 0 0.50 0.45 0.50 1 0 0.55 0.35 1 0.75 1 0.50 0 0.75 0.55 0.75 1.75 0 1.20 -0.25 1.75 -0.75 1.75 -0.40 0 -0.75 -0.25 -0.75 -0.60z"/>
  <path d="M54.30 143.05 c-1 -4.40 -1 -4.55 0.10 -4.55 0.70 0 1.05 0.65 1.50 2.90 0.80 3.80 0.75 5.10 -0.10 5.10 -0.50 0 -1 -1.20 -1.50 -3.45z"/>
  <path d="M229.20 143.15 c0.20 -1.35 0.45 -3.45 0.65 -4.75 0.20 -1.95 0.45 -2.40 1.25 -2.40 0.90 0 1 0.25 0.70 2.40 -0.65 4.70 -1.40 7.10 -2.15 7.10 -0.65 0 -0.70 -0.45 -0.45 -2.35z"/>
  <path d="M53.30 136.90 c-0.15 -0.65 -0.30 -2.10 -0.30 -3.25 0 -1.80 0.15 -2.15 1 -2.15 0.90 0 1 0.35 1 3.25 0 2.45 -0.15 3.25 -0.70 3.25 -0.35 0 -0.80 -0.50 -1 -1.10z"/>
  <path d="M53 104.40 c0 -5.30 0.30 -6.90 1.30 -6.90 0.55 0 0.70 1.20 0.70 5.75 0 5.40 -0.05 5.75 -1 5.75 -0.95 0 -1 -0.35 -1 -4.60z"/>
  <path d="M230 95.75 c0 -2.45 1.15 -3.20 1.70 -1.10 0.60 2.20 0.35 3.35 -0.70 3.35 -0.85 0 -1 -0.35 -1 -2.25z"/>
  <path d="M53.50 95.40 c0 -4.15 3.30 -17.40 4.30 -17.40 1 0 0.90 1.60 -0.50 7.10 -0.70 2.60 -1.40 6.15 -1.60 7.85 -0.25 2.50 -0.50 3.05 -1.25 3.05 -0.55 0 -0.95 -0.30 -0.95 -0.60z"/>
  <path d="M228.80 88.40 c-1.45 -7.15 -1.55 -8.40 -0.65 -8.40 0.55 0 1.05 1.25 1.75 4.40 1.75 7.50 1.85 8.60 0.75 8.60 -0.80 0 -1.10 -0.75 -1.85 -4.60z"/>
  <path d="M225.60 77.05 c-0.35 -1.05 -0.60 -2.50 -0.60 -3.25 0 -0.75 -0.30 -1.30 -0.65 -1.30 -0.75 0 -3.35 -5.05 -3.35 -6.50 0 -0.55 -0.35 -1 -0.75 -1 -0.45 0 -0.75 -0.45 -0.75 -1.25 0 -0.80 -0.30 -1.25 -0.75 -1.25 -0.50 0 -0.75 -0.55 -0.75 -1.75 0 -1.55 -0.15 -1.75 -1.25 -1.75 -1 0 -1.25 -0.25 -1.25 -1.25 0 -0.90 -0.25 -1.25 -1 -1.25 -0.85 0 -1 -0.35 -1 -1.85 l0.05 -1.90 1.70 2 c4.40 5.05 9.95 14.75 12.20 21.40 l1 2.85 -1.15 0 c-0.90 0 -1.25 -0.40 -1.70 -1.95z"/>
  <path d="M58.20 75.15 c1.15 -3.20 3.40 -7.65 3.85 -7.65 0.25 0 0.45 0.80 0.45 1.75 0 1.20 -0.25 1.75 -0.75 1.75 -0.50 0 -0.75 0.50 -0.75 1.35 0 2.45 -1.10 4.65 -2.35 4.65 -1.05 0 -1.10 -0.05 -0.45 -1.85z"/>
  <path d="M62.50 66.10 c0 -0.25 1.35 -2.45 2.95 -4.90 4.95 -7.45 10.10 -12.95 17.30 -18.50 2.40 -1.85 9.30 -6.20 9.85 -6.20 0.25 0 0.40 0.55 0.40 1.25 0 0.90 -0.35 1.30 -1.25 1.55 -0.70 0.15 -1.25 0.50 -1.25 0.75 0 0.25 -0.55 0.45 -1.25 0.45 -0.80 0 -1.25 0.30 -1.25 0.75 0 0.40 -0.35 0.75 -0.75 0.75 -0.40 0 -0.75 0.25 -0.75 0.50 0 0.30 -0.45 0.50 -1 0.50 -0.55 0 -1 0.35 -1 0.75 0 0.40 -0.40 0.75 -0.95 0.75 -0.50 0 -1.05 0.45 -1.20 1 -0.20 0.75 -0.70 1 -1.80 1 -1.30 0 -1.55 0.20 -1.55 1.15 0 1.15 -1.85 3.35 -2.80 3.35 -0.25 0 -0.70 0.50 -0.95 1.15 -0.30 0.65 -1.05 1.15 -1.85 1.25 -1.20 0.15 -1.40 0.40 -1.40 1.70 0 1.05 -0.30 1.55 -1 1.75 -0.55 0.15 -1 0.70 -1 1.20 0 0.55 -0.35 0.95 -0.75 0.95 -0.40 0 -0.75 0.45 -0.75 1 0 0.55 -0.20 1 -0.50 1 -0.25 0 -0.50 0.35 -0.50 0.75 0 0.40 -0.20 0.75 -0.50 0.75 -0.25 0 -0.50 0.35 -0.50 0.75 0 0.40 -0.35 0.75 -0.75 0.75 -0.45 0 -0.75 0.45 -0.75 1.25 0 1 -0.25 1.25 -1.25 1.25 -0.70 0 -1.25 -0.20 -1.25 -0.40z"/>
  <path d="M209.35 51.65 c-0.20 -0.15 -0.35 -0.95 -0.35 -1.75 0 -1.40 0.05 -1.40 1.05 -0.70 0.55 0.40 1.35 1.20 1.75 1.75 0.70 1 0.70 1.05 -0.70 1.05 -0.80 0 -1.60 -0.15 -1.75 -0.35z"/>
  <path d="M203.50 45.75 c0 -0.40 -0.45 -0.75 -1 -0.75 -0.55 0 -1 -0.35 -1 -0.75 0 -0.40 -0.45 -0.75 -1 -0.75 -0.55 0 -1 -0.20 -1 -0.50 0 -0.25 -0.35 -0.50 -0.75 -0.50 -0.40 0 -0.75 -0.45 -0.75 -1 0 -0.80 -0.35 -1 -1.50 -1 -1.15 0 -1.50 -0.20 -1.50 -1 0 -0.80 -0.35 -1 -1.50 -1 -1.85 0 -6 -1.95 -6 -2.85 0 -0.35 -0.60 -0.65 -1.35 -0.65 -2.60 0 -3.65 -0.55 -3.65 -1.80 0 -1.15 0 -1.15 2.15 -0.40 5.90 2.05 16.05 8 20.85 12.15 l1.75 1.50 -1.85 0.05 c-1.35 0 -1.90 -0.20 -1.90 -0.75z"/>
  <path d="M94.50 35.95 c0 -1.70 16.10 -6.65 25.15 -7.70 2.60 -0.30 2.85 -0.25 2.85 0.65 0 0.80 -0.50 1 -3.25 1.30 -1.75 0.20 -5.40 0.90 -8.10 1.55 -2.70 0.70 -5.40 1.25 -6 1.25 -0.65 0 -1.15 0.25 -1.15 0.50 0 0.30 -0.55 0.50 -1.25 0.50 -0.70 0 -1.25 0.25 -1.25 0.50 0 0.30 -0.45 0.50 -1.05 0.50 -0.55 0 -1.35 0.35 -1.75 0.75 -0.85 0.85 -4.20 1.05 -4.20 0.20z"/>
  <path d="M173.75 31.65 c-2.45 -0.65 -6 -1.30 -7.85 -1.50 -2.85 -0.25 -3.40 -0.45 -3.40 -1.20 0 -1.15 0.40 -1.15 6.50 -0.20 6.85 1.10 12.50 2.70 12.50 3.55 0 1 -2.35 0.80 -7.75 -0.65z"/>
 </g>
 <g fill="#81c784">
  <path d="M181.10 400.65 c-16.30 -16.65 -28.20 -36.75 -34.30 -57.90 -1.80 -6.35 -3.30 -12.80 -3.65 -15.80 l-0.25 -1.80 2.90 -0.40 c6.55 -0.80 14.85 -4.40 19.65 -8.50 6.35 -5.40 11.20 -13.15 12.80 -20.50 l0.85 -3.85 3.85 0.35 c5.90 0.50 15.30 2.55 21.10 4.50 32.65 11.30 56.05 39.10 61.20 72.80 0.40 2.90 0.90 10.50 1.10 17.35 l0.30 12.10 -35.20 0 c-39.70 0 -37.50 -0.20 -41.05 3.95 -1.40 1.60 -2.10 2.05 -3.35 2.05 -1.40 0 -2.30 -0.65 -5.95 -4.35z"/>
  <path d="M67.55 402.75 c-3.40 -1.50 -6.05 -5.20 -6.05 -8.50 0 -2.50 1.10 -2.20 2.10 0.65 1.40 3.85 4.05 6.10 8.05 6.80 1.15 0.20 1.85 0.65 1.85 1.05 0 1 -3.65 0.95 -5.95 0z"/>
  <path d="M98.50 402.85 c0 -0.50 0.85 -0.95 2.60 -1.30 4.95 -1.10 7.90 -4.70 7.90 -9.60 0 -4.85 -2.90 -8.55 -7.60 -9.70 -2.05 -0.50 -1.80 -1.75 0.35 -1.75 2.15 0 5.75 1.75 5.75 2.75 0 0.40 0.35 0.75 0.75 0.75 2.20 0 3.60 8.65 2 12.75 -0.70 1.95 -1 2.25 -2.30 2.25 -1.30 0 -1.45 0.20 -1.45 1.50 0 1.15 -0.25 1.50 -0.95 1.50 -0.55 0 -1.05 0.25 -1.15 0.60 -0.10 0.30 -1.50 0.65 -3.05 0.80 -2.35 0.20 -2.85 0.10 -2.85 -0.55z"/>
  <path d="M61.50 389.75 c0 -1 0.35 -2.55 0.70 -3.50 0.60 -1.35 1.05 -1.75 2 -1.75 1.05 0 1.30 -0.25 1.30 -1.30 0 -0.95 0.40 -1.40 1.75 -2 0.95 -0.35 2.50 -0.70 3.50 -0.70 2.60 0 2.25 1.25 -0.50 1.95 -3.05 0.75 -6.05 3.75 -6.80 6.80 -0.70 2.75 -1.95 3.10 -1.95 0.50z"/>
  <path d="M87 381 c0 -0.90 0.35 -1 3 -1 2.65 0 3 0.10 3 1 0 0.90 -0.35 1 -3 1 -2.65 0 -3 -0.10 -3 -1z"/>
  <path d="M136.15 307.15 c-0.95 -0.20 -1.15 -0.55 -1.15 -1.95 0 -1.85 0.60 -2.05 3.95 -1.40 1.35 0.30 1.55 0.50 1.55 2 0 1.60 -0.10 1.70 -1.60 1.65 -0.90 -0.05 -2.15 -0.20 -2.75 -0.30z"/>
  <path d="M146.50 305.35 c0 -1.50 0.20 -1.70 2.50 -2.60 1.40 -0.55 2.50 -1.15 2.50 -1.40 0 -0.20 0.75 -0.35 1.65 -0.25 1.40 0.15 1.60 0.35 1.75 1.80 0.10 1.20 -0.05 1.60 -0.60 1.60 -0.45 0 -0.80 0.20 -0.80 0.45 0 0.65 -3.75 2.05 -5.50 2.05 -1.35 0 -1.50 -0.15 -1.50 -1.65z"/>
  <path d="M131 303.50 c0 -1.40 -0.15 -1.50 -1.75 -1.50 -1.40 0 -1.75 -0.20 -1.75 -1 0 -0.55 -0.35 -1 -0.75 -1 -0.50 0 -0.75 -0.50 -0.75 -1.65 0 -1.60 0.10 -1.70 1.75 -1.75 1.45 -0.05 1.75 0.10 1.75 0.90 0 0.55 0.35 1 0.75 1 0.50 0 0.75 0.50 0.75 1.50 0 1.40 0.15 1.50 1.75 1.50 1.65 0 1.75 0.10 1.75 1.75 0 1.65 -0.10 1.75 -1.75 1.75 -1.60 0 -1.75 -0.10 -1.75 -1.50z"/>
  <path d="M155.85 300.15 c-0.20 -0.15 -0.35 -0.95 -0.35 -1.75 0 -1.25 0.15 -1.40 1.75 -1.40 1.65 0 1.75 0.10 1.75 1.75 0 1.60 -0.15 1.75 -1.40 1.75 -0.80 0 -1.60 -0.15 -1.75 -0.35z"/>
  <path d="M123.50 292.25 c0 -1.85 1.25 -2.50 1.65 -0.85 0.20 0.80 0.25 0.80 0.30 0 0 -0.50 0.40 -0.90 0.80 -0.90 0.50 0 0.75 0.55 0.75 1.75 0 1.70 -0.65 2.35 -1.15 1.15 -0.20 -0.50 -0.30 -0.50 -0.30 0 -0.05 0.30 -0.50 0.60 -1.05 0.60 -0.80 0 -1 -0.35 -1 -1.75z"/>
  <path d="M158.50 291 c0 -2.10 1.20 -2.90 1.65 -1.10 0.20 0.80 0.25 0.80 0.30 0 0 -0.50 0.40 -0.90 0.80 -0.90 0.55 0 0.75 0.55 0.75 2 0 1.65 -0.15 2 -0.95 2 -0.55 0 -1.10 -0.30 -1.20 -0.60 -0.20 -0.50 -0.30 -0.50 -0.30 0 -0.05 0.30 -0.25 0.60 -0.55 0.60 -0.25 0 -0.50 -0.90 -0.50 -2z"/>
  <path d="M123 280.80 l0 -8.20 1.80 -0.35 c1 -0.15 3.70 -0.05 6 0.30 l4.20 0.65 0 1.70 0 1.75 -3.10 -0.35 c-1.75 -0.20 -3.65 -0.50 -4.25 -0.65 -1.15 -0.25 -1.15 -0.25 -1.15 6.55 l0 6.80 -1.75 0 -1.75 0 0 -8.20z"/>
  <path d="M138.50 275.25 l0 -1.75 4.75 0 4.75 0 0 1.75 0 1.75 -4.75 0 -4.75 0 0 -1.75z"/>
  <path d="M150 274.80 c0 -1.65 0.05 -1.65 2.65 -2 1.40 -0.15 3.65 -0.45 5 -0.60 1.90 -0.25 2.35 -0.20 2.35 0.45 0 0.40 -0.30 0.90 -0.60 1 -0.50 0.20 -0.50 0.30 0 0.30 0.30 0.05 0.60 0.35 0.60 0.75 0 0.45 -1.15 0.85 -3.75 1.25 -6 0.90 -6.25 0.85 -6.25 -1.15z"/>
  <path d="M137.65 224.45 c-6.90 -1.15 -14.55 -5.90 -16.95 -10.50 -0.40 -0.85 -0.90 -2.75 -1.05 -4.25 -0.20 -1.80 -0.50 -2.70 -0.95 -2.70 -0.40 0 -0.70 -0.20 -0.70 -0.45 0 -0.95 1.15 -3.55 1.55 -3.55 0.25 0 0.45 -0.30 0.45 -0.65 0 -0.90 1.80 -2.50 4 -3.65 3.10 -1.55 12.50 -0.95 12.50 0.85 0 0.25 0.25 0.45 0.55 0.45 0.25 0 1.35 0.55 2.35 1.25 2.35 1.60 4.45 1.60 6.65 -0.05 2.90 -2.20 5.30 -3.20 8.30 -3.50 3.05 -0.35 6.65 0.35 7.75 1.45 0.35 0.35 1.05 0.80 1.55 1 0.45 0.15 0.85 0.65 0.85 1.10 0 0.40 0.25 0.75 0.55 0.75 0.55 0 1.95 3 1.95 4.25 0 0.40 -0.35 0.75 -0.75 0.75 -0.55 0 -0.75 0.60 -0.75 2.40 -0.05 4.90 -3.45 9.05 -10.20 12.35 -5.75 2.85 -11.50 3.70 -17.65 2.70z m9.45 -2 c6.10 -1.25 13.75 -6.25 15.60 -10.15 2 -4.25 -0.05 -8.70 -4.80 -10.50 -2.65 -1.05 -3.95 -0.65 -8.40 2.40 -2.45 1.70 -2.85 1.80 -6.65 1.80 -3.40 0 -4.35 -0.20 -6.20 -1.25 -1.15 -0.70 -2.15 -1.45 -2.15 -1.65 0 -0.25 -1.10 -0.80 -2.45 -1.30 -2.40 -0.85 -2.55 -0.85 -4.65 0.15 -3.15 1.45 -4.80 3.20 -5.50 5.70 -0.50 1.95 -0.45 2.45 0.60 4.55 1.75 3.65 3 4.70 9.25 7.80 5.75 2.85 10.05 3.55 15.35 2.45z"/>
  <path d="M202 207.75 c0 -0.40 -0.35 -0.75 -0.80 -0.75 -0.65 0 -0.75 -0.30 -0.50 -1.60 0.20 -0.90 0.50 -3.05 0.65 -4.75 l0.30 -3.15 1.65 0 c2 0 2.05 0.30 1.10 6.90 -0.45 3.45 -0.70 4.10 -1.50 4.10 -0.50 0 -0.90 -0.35 -0.90 -0.75z"/>
  <path d="M80.80 205.70 c-0.15 -1.30 -0.30 -2.75 -0.30 -3.25 0 -1.05 1.30 -1.30 1.65 -0.30 0.20 0.50 0.30 0.50 0.30 0 0.05 -1 1.55 -0.75 1.55 0.25 0 0.45 0.15 1.75 0.35 2.80 0.25 1.70 0.20 1.90 -0.50 1.65 -0.55 -0.20 -0.85 -0.05 -0.85 0.40 0 0.40 -0.40 0.75 -0.95 0.75 -0.70 0 -1 -0.50 -1.25 -2.30z"/>
  <path d="M80 199 c0 -1.95 0.05 -2 1.75 -2 1.70 0 1.75 0.05 1.75 1.90 0 1.85 -0.05 1.95 -1.75 2 -1.70 0.05 -1.75 0.05 -1.75 -1.90z"/>
  <path d="M84.50 170.75 c0 -1.70 0.05 -1.75 2 -1.75 1.95 0 2 0.05 2 1.75 0 1.70 -0.05 1.75 -2 1.75 -1.95 0 -2 -0.05 -2 -1.75z"/>
  <path d="M197.50 170.75 c0 -1.70 0.05 -1.75 2 -1.75 1.95 0 2 0.05 2 1.75 0 1.70 -0.05 1.75 -2 1.75 -1.95 0 -2 -0.05 -2 -1.75z"/>
  <path d="M80.50 170.25 c0 -1.65 0.10 -1.75 1.75 -1.75 1.65 0 1.75 0.10 1.75 1.75 0 1.40 -0.20 1.75 -0.95 1.75 -0.60 0 -1.05 -0.40 -1.20 -1.10 l-0.20 -1.15 -0.10 1.15 c-0.10 1.80 -1.05 1.25 -1.05 -0.65z"/>
  <path d="M82.75 151.10 c-3.10 -1.05 -5.70 -3 -7.50 -5.60 -2.35 -3.40 -2.90 -5.70 -3.15 -13.35 l-0.20 -7.15 70.60 0 70.60 0 -0.20 7.90 c-0.15 7.35 -0.25 8 -1.50 10.35 -1.70 3.20 -4.50 5.90 -7.65 7.35 l-2.50 1.15 -58 0.10 c-54 0.10 -58.15 0.05 -60.50 -0.75z"/>
  <path d="M72.15 100.15 c0.40 -9.65 1.90 -15.90 5.55 -23.40 3.20 -6.45 6.30 -10.70 11.30 -15.45 6.45 -6.05 14.05 -10.25 22.95 -12.70 l4.80 -1.35 25.75 0 c24.80 0 25.90 0.05 30 1.10 15.05 3.85 27.45 13.55 34.30 26.80 4.25 8.30 5.90 14.80 6.50 25.80 l0.35 6.55 -70.90 0 -70.90 0 0.30 -7.35z"/>
 </g>
 <g fill="#f7ac70">
  <path d="M135.75 306.75 c-3.50 -1.25 -3.75 -1.35 -3.75 -1.75 0 -0.20 -0.80 -0.75 -1.80 -1.25 -0.95 -0.45 -1.95 -1.30 -2.20 -1.90 -0.20 -0.60 -0.80 -1.55 -1.35 -2.10 -2.20 -2.45 -2.75 -5.45 -3.05 -16.60 l-0.20 -10.65 3.15 0 c1.75 0 4.65 0.25 6.45 0.55 5.05 0.85 15.55 0.70 21.15 -0.30 5.95 -1 7.15 -0.80 7.60 1.30 0.35 1.60 -0.10 18.70 -0.55 21.10 -0.15 0.75 -0.45 1.35 -0.70 1.35 -0.25 0 -0.55 0.70 -0.75 1.50 -0.20 0.85 -0.55 1.50 -0.80 1.50 -0.25 0 -0.45 0.20 -0.45 0.50 0 0.25 -0.85 1.25 -1.85 2.25 -1.65 1.50 -3.05 2.30 -8.25 4.85 -1.40 0.65 -10.45 0.40 -12.65 -0.35z m16.30 -3.20 c1.20 -0.75 2.75 -2.05 3.45 -2.85 1.15 -1.35 1.15 -1.35 -0.50 0.15 -0.95 0.85 -2.75 2.15 -4 2.85 -1.25 0.70 -2 1.30 -1.70 1.30 0.25 0 1.50 -0.65 2.75 -1.45z m-23.50 -4.85 c-0.55 -0.75 -1.05 -1.20 -1.05 -1 0 0.50 1.70 2.75 1.95 2.55 0.10 -0.10 -0.30 -0.80 -0.90 -1.55z m-3.20 -8.80 c-0.10 -0.65 -0.20 -0.25 -0.20 0.85 -0.05 1.10 0.05 1.60 0.20 1.15 0.10 -0.50 0.10 -1.40 0 -2z m35 -4 c-0.10 -1.20 -0.20 -0.35 -0.20 1.85 0 2.20 0.10 3.15 0.20 2.15 0.10 -1.05 0.10 -2.85 0 -4z m-33.95 -12.05 c1.25 -0.20 1.20 -0.20 -0.25 -0.30 l-1.65 -0.05 0.10 7.15 0.10 7.10 0.15 -6.85 0.20 -6.85 1.35 -0.20z m33.95 7.05 c-0.10 -0.65 -0.20 -0.25 -0.20 0.85 -0.05 1.10 0.05 1.60 0.20 1.15 0.10 -0.50 0.10 -1.40 0 -2z m-15.50 -5.75 c-1 -0.10 -2.60 -0.10 -3.50 0 -0.85 0.10 0 0.20 1.90 0.20 1.95 0 2.65 -0.10 1.60 -0.20z m15.65 -0.90 c0 -0.95 -0.20 -1.15 -0.85 -0.90 -0.55 0.20 -0.60 0.40 -0.25 0.55 0.35 0.10 0.60 0.50 0.60 0.90 0 0.40 0.10 0.70 0.25 0.70 0.15 0 0.25 -0.55 0.25 -1.25z"/>
  <path d="M81.85 208.15 c-0.20 -0.15 -0.35 -0.90 -0.35 -1.65 0 -0.70 -0.30 -1.60 -0.60 -1.95 -0.50 -0.45 -0.65 -4.30 -0.75 -15.20 -0.05 -8.05 0.05 -15.85 0.20 -17.35 l0.20 -2.75 61.35 0.10 c33.75 0.10 61.75 0.15 62.25 0.15 0.90 0 0.95 0.75 0.70 17.40 -0.15 12.35 -0.45 17.95 -0.90 19.50 -0.80 2.55 -2.10 2.90 -1.80 0.50 0.10 -0.90 0.10 -1.25 0 -0.75 -0.20 0.80 -1.35 0.85 -18.70 0.75 -17.35 -0.15 -18.40 -0.10 -18.15 0.75 0.45 1.40 -1.25 1 -1.80 -0.45 -0.75 -2 -2.35 -3.80 -4.40 -5.05 -3.05 -1.90 -5.15 -1.45 -10.05 2.05 -2 1.45 -2.50 1.55 -6.25 1.55 -4 0 -4.10 -0.05 -7.75 -2.35 -4.15 -2.70 -5.60 -2.90 -8.60 -1.40 -1.95 1 -4.95 4.55 -4.95 5.85 0 0.35 -0.35 0.65 -0.75 0.65 -0.40 0 -0.75 -0.35 -0.75 -0.75 0 -0.65 -2.50 -0.75 -18.35 -0.85 l-18.40 -0.15 -0.15 -1.50 c-0.10 -0.80 -0.35 -1.70 -0.60 -1.90 -0.20 -0.25 -0.20 0.55 0.05 1.75 0.20 1.20 0.40 2.45 0.45 2.80 0 0.65 -0.65 0.80 -1.15 0.25z m0 -31.75 c-0.10 -1.45 -0.15 -0.40 -0.15 2.35 0 2.75 0.05 3.95 0.15 2.65 0.10 -1.30 0.10 -3.55 0 -5z m0.25 -4.65 c0.10 -0.95 0 -1.75 -0.20 -1.75 -0.20 0 -0.40 0.80 -0.40 1.75 0 0.95 0.10 1.75 0.20 1.75 0.10 0 0.30 -0.80 0.40 -1.75z"/>
 </g>
 <g fill="#67c5ca">
  <path d="M395.50 375.75 l0 -23.25 13.25 0 13.25 0 0 23.25 0 23.25 -13.25 0 -13.25 0 0 -23.25z"/>

  <path d="M446.75 280.50 c-0.20 -0.80 -0.55 -1.50 -0.80 -1.50 -0.25 0 -0.45 -0.55 -0.45 -1.20 0 -0.90 -0.35 -1.25 -1.35 -1.45 -3.05 -0.60 -5.15 -1.60 -5.15 -2.45 0 -1.25 1.80 -1.15 4.50 0.20 2.60 1.35 4.85 4 5.30 6.30 0.30 1.40 0.20 1.60 -0.70 1.60 -0.75 0 -1.10 -0.45 -1.35 -1.50z"/>
 </g>
 <g fill="#388e3c">
  <path d="M18.50 423.40 c0 -24.25 0.20 -43.95 0.50 -47.15 3.55 -38.60 29.35 -70.05 66.25 -80.85 6 -1.75 16.10 -3.50 18.90 -3.30 l1.95 0.15 0.95 3.70 c3.75 14.70 16.20 26.15 31.20 28.55 4.15 0.65 10.50 -0.05 15.20 -1.75 3.55 -1.30 6.05 -1.60 6.05 -0.75 0 1.10 -7.20 3.65 -12.10 4.25 l-2.80 0.35 0.45 1.55 c0.20 0.90 1.10 4.55 2 8.10 5.65 23.15 17.70 44.55 35.15 62.45 l4.80 4.95 1.85 -2.15 c2.05 -2.35 5.05 -3.95 7.55 -4 1.25 0 1.60 0.20 1.60 1 0 0.75 -0.35 1 -1.35 1 -0.80 0.05 -1.95 0.35 -2.65 0.75 -0.70 0.40 -1.85 0.70 -2.60 0.75 -1.15 0 -1.40 0.20 -1.40 1.25 0 0.75 -0.40 2 -0.85 2.90 -0.85 1.45 -0.90 4 -0.95 30.60 l-0.10 29 -84.80 0.15 -84.80 0.10 0 -41.60z m84.40 -22.20 c8.20 -3.40 8.75 -14.30 0.95 -18.25 -1.90 -1 -2.80 -1.05 -17.60 -1 -9.90 0 -16.15 0.25 -17.05 0.55 -0.80 0.30 -2.20 1.30 -3.15 2.15 -5.20 4.95 -3.65 13.70 2.95 16.55 2.60 1.15 31.20 1.15 33.90 0z"/>
  <path d="M264.80 383.40 c-0.15 -0.65 -0.30 -2.35 -0.30 -3.75 0 -2.30 0.15 -2.65 1 -2.65 0.90 0 1 0.35 1 3.75 0 2.85 -0.15 3.75 -0.70 3.75 -0.35 0 -0.80 -0.50 -1 -1.10z"/>
  <path d="M264.25 374.65 c-3.25 -21.20 -8.85 -33.95 -22.05 -50 l-1.35 -1.65 1.50 0 c1.75 0 2.65 0.80 2.65 2.35 0 0.85 0.30 1.15 1.05 1.15 0.60 0 1.15 0.40 1.30 1 0.15 0.55 0.45 1 0.70 1 0.25 0 0.45 0.45 0.45 1 0 0.55 0.35 1 0.75 1 0.40 0 0.75 0.35 0.75 0.75 0 0.40 0.25 0.75 0.50 0.75 0.30 0 0.50 0.35 0.50 0.75 0 0.40 0.25 0.75 0.50 0.75 0.30 0 0.50 0.35 0.50 0.75 0 0.40 0.20 0.75 0.50 0.75 0.25 0 0.60 0.55 0.80 1.25 0.15 0.70 0.45 1.25 0.65 1.25 0.55 0 1.55 2.35 1.55 3.50 0 0.55 0.30 1 0.70 1 0.85 0 1.30 1.10 1.30 3.05 0 0.90 0.25 1.45 0.65 1.45 2 0 7.85 21.15 7.85 28.40 0 2.35 -1.35 2.15 -1.75 -0.25z"/>
  <path d="M160 320.75 c0 -0.90 0.35 -1.30 1.25 -1.55 0.70 -0.15 1.25 -0.50 1.25 -0.75 0 -0.25 0.30 -0.45 0.70 -0.45 0.40 0 0.80 -0.35 1 -0.75 0.15 -0.45 0.90 -0.75 1.75 -0.75 1.25 0 1.50 -0.20 1.65 -1.35 0.10 -1.10 0.45 -1.45 1.55 -1.55 1.15 -0.15 1.35 -0.40 1.35 -1.70 0 -1.05 0.30 -1.55 1 -1.75 0.55 -0.15 1 -0.65 1 -1.15 0 -0.50 0.15 -1 0.40 -1.10 0.75 -0.30 4.65 -9.30 5.20 -12.05 0.35 -1.70 0.85 -2.85 1.25 -2.85 0.35 0 0.65 -0.20 0.65 -0.50 0 -0.70 3 -0.60 8.50 0.25 9.05 1.45 22.50 5.65 22.50 7.05 0 0.45 0.55 0.70 1.50 0.70 1.85 0 6 1.95 6 2.85 0 0.35 0.55 0.65 1.25 0.65 0.80 0 1.25 0.30 1.25 0.75 0 0.45 0.45 0.75 1.25 0.75 0.70 0 1.25 0.25 1.25 0.50 0 0.30 0.35 0.50 0.75 0.50 0.40 0 1.20 0.45 1.75 1 0.55 0.55 1.25 1 1.50 1 0.30 0 0.50 0.25 0.50 0.50 0 0.30 0.35 0.50 0.75 0.50 0.40 0 0.75 0.35 0.75 0.75 0 0.45 0.45 0.75 1.05 0.75 0.60 0 1.15 0.40 1.30 1 0.15 0.55 0.65 1 1.15 1 1.30 0 2.60 1.75 2.40 3.25 -0.15 1.30 -0.15 1.30 -3.15 -1.30 -7.60 -6.55 -19.25 -13.05 -29.70 -16.70 -5.05 -1.70 -14.80 -3.90 -19.65 -4.40 l-2.35 -0.20 -0.80 3.60 c-1.45 6.60 -5.40 13.45 -10.85 18.80 -2.10 2.05 -7.65 5.95 -8.50 5.95 -0.20 0 -0.40 -0.55 -0.40 -1.25z"/>
  <path d="M138.40 307.65 c-1.05 -0.10 -1.90 -0.40 -1.90 -0.70 0 -0.25 -0.55 -0.45 -1.25 -0.45 -1.35 0 -3.75 -0.95 -3.75 -1.50 0 -0.20 -0.45 -0.50 -1 -0.65 -0.70 -0.15 -1 -0.70 -1 -1.55 0 -1.05 -0.25 -1.30 -1.25 -1.30 -1.05 0 -1.25 -0.25 -1.25 -1.50 0 -1.15 -0.25 -1.50 -0.95 -1.50 -1.30 0 -2.50 -3.60 -2.90 -8.60 -0.25 -3.35 -0.20 -3.90 0.50 -3.90 0.80 0 1.05 0.80 1.50 5.35 0.55 5.10 4.45 10.40 9.45 12.95 3.35 1.75 9.40 2.20 13.35 1.05 2.55 -0.75 2.55 -0.75 2.55 0.40 0 1 -0.35 1.20 -3.15 1.70 -3.10 0.55 -5.20 0.60 -8.95 0.20z"/>
  <path d="M151 304.50 c0 -0.25 0.20 -0.50 0.45 -0.50 0.25 0 1.60 -1.05 3 -2.30 l2.55 -2.30 0 1.80 c0 1.60 -0.15 1.80 -1.25 1.80 -0.90 0 -1.25 0.25 -1.25 1 0 0.80 -0.35 1 -1.75 1 -0.95 0 -1.75 -0.20 -1.75 -0.50z"/>
  <path d="M157.50 298.75 c0 -0.15 0.45 -1.15 1 -2.20 0.50 -1.05 1.20 -2.95 1.55 -4.25 0.35 -1.45 0.85 -2.30 1.35 -2.30 0.60 0 0.70 0.45 0.45 2.40 -0.15 1.30 -0.65 3.35 -1.10 4.50 -0.70 1.65 -1.10 2.10 -2.05 2.10 -0.65 0 -1.20 -0.10 -1.20 -0.25z"/>
  <path d="M160.50 281.75 c0 -5.90 0.05 -6.25 1 -6.25 0.95 0 1 0.35 1 6.25 0 5.90 -0.05 6.25 -1 6.25 -0.95 0 -1 -0.35 -1 -6.25z"/>
  <path d="M123.50 273.25 c0 -1.60 0.15 -1.75 1.40 -1.75 0.75 0.05 2.80 0.35 4.60 0.75 1.80 0.40 4.10 0.70 5.15 0.75 1.50 0 1.85 0.20 1.85 1 0 1.20 -0.75 1.25 -6.25 0.25 -5.05 -0.90 -5.75 -0.90 -5.75 0 0 0.40 -0.20 0.75 -0.50 0.75 -0.25 0 -0.50 -0.80 -0.50 -1.75z"/>
  <path d="M149 274.15 c0 -0.80 0.65 -1 4.65 -1.55 5.70 -0.75 5.85 -0.75 5.85 0.10 0 0.75 -2.55 1.40 -7.85 2.05 -2.40 0.30 -2.65 0.25 -2.65 -0.60z"/>
  <path d="M136.50 223.95 c-3.10 -0.60 -9.80 -3.95 -12.35 -6.15 -6.20 -5.40 -5.40 -14.10 1.60 -17.35 3.75 -1.75 6.65 -1.20 11.70 2.25 2.20 1.50 3.10 1.80 5.30 1.80 2.20 0 3.05 -0.30 5.25 -1.80 1.45 -1 3.40 -2.10 4.30 -2.50 3.85 -1.60 8.60 -0.20 11.15 3.30 1.85 2.55 2.30 5.10 1.50 8.30 -1.25 4.85 -8.95 10.60 -16.35 12.15 -3.05 0.65 -8.85 0.65 -12.10 0z"/>
  <path d="M202.70 204.15 c0.60 -4.25 0.85 -5.15 1.60 -5.15 0.80 0 0.85 0.95 0.40 4.90 -0.30 2.15 -0.50 2.60 -1.35 2.60 -0.85 0 -0.95 -0.25 -0.65 -2.35z"/>
  <path d="M80.30 202.90 c-0.45 -3.95 -0.40 -4.90 0.40 -4.90 0.75 0 1 0.85 1.55 5.15 0.30 2.10 0.20 2.35 -0.65 2.35 -0.80 0 -1 -0.50 -1.30 -2.60z"/>
  <path d="M203.50 183.30 l0 -13.15 -1.25 0.25 c-1 0.15 -1.25 0 -1.25 -0.85 0 -0.85 0.30 -1.05 1.45 -1.05 3.20 0 3.05 -0.70 3.05 14.30 0 13.35 0 13.70 -1 13.70 -0.95 0 -1 -0.35 -1 -13.20z"/>
  <path d="M81.05 170.40 c-0.05 -1.90 -0.05 -1.90 1.95 -1.90 1.70 0 2 0.15 2 1.05 0 0.95 -0.20 1.05 -1.70 0.80 -1.50 -0.25 -1.75 -0.15 -1.95 0.80 -0.10 0.65 -0.25 0.30 -0.30 -0.75z"/>
  <path d="M86.40 170.65 c-0.50 -0.10 -0.90 -0.55 -0.90 -0.95 0 -0.60 8.05 -0.70 57.50 -0.70 48.60 0 57.50 0.10 57.50 0.70 0 0.35 -0.50 0.80 -1.10 1 -1.30 0.35 -111.70 0.30 -113 -0.05z"/>
  <path d="M87 152.15 c-4.50 -0.65 -4.50 -0.65 -4.50 -1.85 0 -1.20 0 -1.20 2.40 -0.50 2 0.60 11.45 0.70 58.65 0.60 l56.20 -0.15 2.50 -1.15 c3.15 -1.45 5.95 -4.15 7.65 -7.35 1.20 -2.25 1.35 -3.15 1.50 -8.85 0.20 -5.60 0.10 -6.40 -0.60 -6.40 -0.45 0 -0.80 -0.35 -0.80 -0.75 0 -0.50 0.55 -0.75 1.75 -0.75 l1.75 0 0 5.45 c0 2.95 -0.20 6.65 -0.50 8.10 -0.55 3 -1.95 6.45 -2.60 6.45 -0.20 0 -0.40 0.25 -0.40 0.60 0 0.80 -2.55 3.40 -3.35 3.40 -0.35 0 -0.65 0.20 -0.65 0.40 0 0.75 -3.55 2.10 -6.75 2.60 -2.80 0.45 -109.35 0.60 -112.25 0.15z"/>
  <path d="M78.35 149.15 c-0.20 -0.15 -0.35 -0.85 -0.35 -1.50 0 -0.90 -0.25 -1.15 -1.25 -1.15 -0.75 0 -1.40 -0.35 -1.60 -0.85 -0.20 -0.50 -0.65 -1.20 -1 -1.55 -0.90 -0.90 -2.15 -5.40 -2.15 -7.70 0 -3.10 1.30 -2.45 2 1 0.35 1.55 1.05 3.70 1.60 4.80 1 1.95 5.10 6.30 5.95 6.30 0.25 0 0.45 0.25 0.45 0.50 0 0.55 -3.15 0.70 -3.65 0.15z"/>
  <path d="M76 107 c0 -0.85 0.35 -1 2.50 -1 2.15 0 2.50 0.15 2.50 1 0 0.85 -0.35 1 -2.50 1 -2.15 0 -2.50 -0.15 -2.50 -1z"/>
  <path d="M147 107 c0 -0.85 0.35 -1 2.50 -1 2.15 0 2.50 0.15 2.50 1 0 0.85 -0.35 1 -2.50 1 -2.15 0 -2.50 -0.15 -2.50 -1z"/>
  <path d="M211.80 101.40 c-0.15 -0.65 -0.30 -2.10 -0.30 -3.20 0 -8.60 -5.10 -21.70 -11.45 -29.70 -2.95 -3.65 -3 -3.75 -1.75 -3.90 1.50 -0.20 2.70 0.65 2.70 1.95 0 0.55 0.35 0.95 0.80 0.95 0.45 0 0.90 0.45 1.05 1 0.15 0.55 0.45 1 0.70 1 0.25 0 0.45 0.35 0.45 0.75 0 0.40 0.25 0.75 0.50 0.75 0.30 0 0.50 0.55 0.50 1.25 0 0.70 0.30 1.25 0.65 1.25 0.85 0 3.90 6.45 5.35 11.25 2.10 6.95 3.20 17.75 1.80 17.75 -0.35 0 -0.80 -0.50 -1 -1.10z"/>
  <path d="M72.20 95.65 c0.35 -4.40 2.25 -12.65 2.90 -12.65 0.20 0 0.40 -0.55 0.40 -1.25 0 -0.70 0.25 -1.25 0.50 -1.25 0.30 0 0.50 -0.45 0.50 -1 0 -1.05 2.30 -6.05 3 -6.50 0.20 -0.15 0.50 -0.75 0.70 -1.35 0.20 -0.65 0.70 -1.15 1.10 -1.15 0.40 0 0.70 -0.45 0.70 -1 0 -0.55 0.20 -1 0.45 -1 0.25 0 0.55 -0.45 0.70 -1 0.15 -0.60 0.70 -1 1.30 -1 0.75 0 1.05 -0.30 1.05 -1.15 0 -1.45 3.40 -4.85 4.85 -4.85 0.75 0 1.15 -0.35 1.25 -1.10 0.10 -0.75 0.55 -1.20 1.30 -1.30 0.60 -0.10 1.10 -0.50 1.10 -0.90 0 -0.40 0.35 -0.70 0.75 -0.70 0.40 0 0.75 -0.20 0.75 -0.50 0 -0.25 0.35 -0.50 0.75 -0.50 0.40 0 0.75 -0.20 0.75 -0.45 0 -0.25 0.50 -0.65 1.10 -0.85 0.60 -0.15 1.40 -0.60 1.75 -0.95 1.95 -1.95 13.25 -5.50 19.25 -6.10 2.90 -0.25 3.40 -0.20 3.40 0.50 0 0.55 -0.60 0.90 -1.85 1.10 -12.55 2 -21.80 6.25 -29.95 13.90 -5.20 4.85 -8.25 9.05 -11.50 15.60 -2.60 5.35 -5.20 14 -5.20 17.50 0 2.30 -0.55 3.75 -1.40 3.75 -0.65 0 -0.70 -0.60 -0.40 -3.85z"/>
  <path d="M192.30 60.50 c-1.35 -1.10 -3.95 -2.95 -5.85 -4.15 -1.90 -1.15 -3.45 -2.25 -3.45 -2.45 0 -0.70 3.40 -0.40 4.20 0.35 0.40 0.40 0.95 0.75 1.25 0.75 0.30 0 0.55 0.25 0.55 0.50 0 0.30 0.35 0.50 0.75 0.50 0.40 0 0.75 0.25 0.75 0.50 0 0.30 0.35 0.50 0.75 0.50 0.40 0 0.75 0.35 0.75 0.75 0 0.40 0.40 0.75 0.95 0.75 1.30 0 2.15 1.20 1.95 2.75 l-0.15 1.30 -2.45 -2.05z"/>
  <path d="M177.75 52.05 c-3.15 -1.30 -7.80 -2.50 -12.85 -3.30 -1.30 -0.20 -1.90 -0.55 -1.90 -1.10 0 -0.70 0.50 -0.75 3.20 -0.50 3.75 0.35 8.30 1.45 12.45 2.95 2.40 0.85 2.85 1.20 2.85 2.20 0 0.65 -0.05 1.20 -0.10 1.15 -0.10 0 -1.70 -0.65 -3.65 -1.40z"/>
  <path d="M128 47.50 c0 -1 0.35 -1 14 -1 13.65 0 14 0 14 1 0 1 -0.35 1 -14 1 -13.65 0 -14 0 -14 -1z"/>
 </g>
 <g fill="#10b981">
  <path d="M502 483 c0 -0.80 0.35 -1 1.75 -1 2 0 2.45 1.20 0.65 1.70 -1.90 0.50 -2.40 0.35 -2.40 -0.70z"/>
  <path d="M510.50 475.75 c0 -0.80 0.30 -1.25 0.75 -1.25 0.80 0 0.95 0.45 0.45 1.70 -0.45 1.25 -1.20 0.95 -1.20 -0.45z"/>
  <path d="M510.50 405.75 c0 -0.80 -0.30 -1.25 -0.75 -1.25 -0.55 0 -0.75 -0.55 -0.75 -1.80 0 -1.60 0.10 -1.75 0.80 -1.15 0.80 0.65 1.45 2 2 4.20 0.25 0.95 0.10 1.25 -0.50 1.25 -0.50 0 -0.80 -0.45 -0.80 -1.25z"/>
  <path d="M472.15 399.65 l-31.65 -0.15 0.05 -1.90 c0.05 -1 0.20 -1.40 0.30 -0.85 0.20 1 0.60 1 32.05 1 25.05 0 32.10 0.15 33 0.65 1.60 0.90 1.35 1.60 -0.50 1.50 -0.90 -0.10 -15.90 -0.20 -33.25 -0.25z"/>
  <path d="M286 398.80 c0 -1.15 2.20 -1.35 15.20 -1.30 6.90 0.05 26.65 0.05 43.95 0.05 27.50 -0.05 31.35 -0.15 31.35 -0.80 0 -0.40 0.25 -0.75 0.50 -0.75 0.30 0 0.50 0.80 0.50 1.75 l0 1.75 -45.75 0 c-38.75 0 -45.75 -0.10 -45.75 -0.70z"/>
  <path d="M395.35 399.15 c-0.20 -0.15 -0.35 -10.85 -0.35 -23.75 l0 -23.40 13.50 0 13.50 0 0 1.75 c0 1.20 -0.25 1.75 -0.75 1.75 -0.40 0 -0.75 -0.35 -0.75 -0.75 0 -0.65 -1.65 -0.75 -11.75 -0.75 l-11.75 0 0 21.75 c0 21.40 0 21.75 1 21.75 0.65 0 1 0.35 1 1 0 0.80 -0.35 1 -1.65 1 -0.95 0 -1.85 -0.15 -2 -0.35z"/>
  <path d="M419 398.25 c0 -0.40 0.35 -0.75 0.75 -0.75 0.55 0 0.75 -0.55 0.75 -2 0 -1.65 0.15 -2 1 -2 0.90 0 1 0.35 1 2.75 l0 2.75 -1.75 0 c-1.20 0 -1.75 -0.25 -1.75 -0.75z"/>
  <path d="M0 379.40 c0 -1.50 0.65 -2.90 1.30 -2.90 0.45 0 0.70 0.60 0.70 1.75 0 1.40 -0.20 1.75 -1 1.75 -0.55 0 -1 -0.30 -1 -0.60z"/>
  <path d="M283 375.25 c0 -2 1.20 -2.45 1.70 -0.60 0.50 1.85 0.35 2.35 -0.70 2.35 -0.80 0 -1 -0.35 -1 -1.75z"/>
  <path d="M282.50 371.65 c0 -0.50 -0.15 -2.10 -0.30 -3.50 -0.30 -2.20 -0.20 -2.65 0.45 -2.65 0.75 0 1 0.60 1.60 4.90 0.30 1.90 0.25 2.10 -0.70 2.10 -0.65 0 -1.05 -0.30 -1.05 -0.85z"/>
  <path d="M280.50 359.75 c0 -2 1.20 -2.45 1.70 -0.60 0.50 1.85 0.35 2.35 -0.70 2.35 -0.80 0 -1 -0.35 -1 -1.75z"/>
  <path d="M439 355.75 l0 -2.75 1.90 0.05 c1.40 0 1.60 0.10 0.85 0.40 -0.80 0.30 -0.95 0.80 -0.80 2.70 0.10 2.10 0 2.35 -0.90 2.35 -0.95 0 -1.05 -0.30 -1.05 -2.75z"/>
  <path d="M485.50 352 c0 -0.80 0.45 -1.05 2.50 -1.30 1.40 -0.20 2.50 -0.50 2.50 -0.75 0 -0.25 0.80 -0.45 1.80 -0.45 2.70 0 1.90 1.10 -1.85 2.35 -4.05 1.40 -4.95 1.45 -4.95 0.15z"/>
  <path d="M499 346.05 c0 -1.45 0.15 -1.55 1.80 -1.55 1.95 0 1.90 0.45 -0.30 2 l-1.50 1.05 0 -1.50z"/>
  <path d="M274 340.20 c0 -2.20 0.90 -2.10 1.85 0.20 0.65 1.55 0.60 1.60 -0.60 1.60 -1.10 0 -1.25 -0.20 -1.25 -1.80z"/>
  <path d="M506.50 336.80 c0 -0.95 0.30 -2.05 0.65 -2.40 0.40 -0.35 0.85 -1.50 1.05 -2.55 0.25 -1.45 0.60 -1.85 1.40 -1.85 0.90 0 1 0.20 0.70 1.50 -0.40 2.05 -2.75 7 -3.35 7 -0.25 0 -0.45 -0.75 -0.45 -1.70z"/>
  <path d="M333.50 334 c0 -1.05 0.50 -1.20 2.40 -0.70 1.80 0.50 1.35 1.70 -0.65 1.70 -1.40 0 -1.75 -0.20 -1.75 -1z"/>
  <path d="M480.50 334.35 c0 -0.40 1.15 -1 2.75 -1.45 2.75 -0.75 2.75 -0.75 2.75 0.35 0 0.85 -0.35 1.20 -1.55 1.45 -2.50 0.50 -3.95 0.35 -3.95 -0.35z"/>
  <path d="M269 330.25 c0 -2.15 0.50 -2.20 1.65 -0.30 1.10 1.90 1.10 2.05 -0.40 2.05 -1.10 0 -1.25 -0.20 -1.25 -1.75z"/>
  <path d="M305.80 327.90 c-0.50 -1.90 -0.35 -2.40 0.70 -2.40 0.80 0 1 0.35 1 1.75 0 2 -1.20 2.45 -1.70 0.65z"/>
  <path d="M266 325.25 c0 -2.15 0.50 -2.20 1.65 -0.30 1.10 1.90 1.10 2.05 -0.40 2.05 -1.10 0 -1.25 -0.20 -1.25 -1.75z"/>
  <path d="M305.30 321.90 c-0.60 -2.25 -0.35 -3.40 0.70 -3.40 0.85 0 1 0.35 1 2.25 0 2.45 -1.15 3.20 -1.70 1.15z"/>
  <path d="M260.50 317.20 c0 -1.95 0.45 -1.90 2 0.30 l1.05 1.50 -1.50 0 c-1.45 0 -1.55 -0.15 -1.55 -1.80z"/>
  <path d="M26.50 313 c1.55 -2.20 2 -2.25 2 -0.30 0 1.65 -0.10 1.80 -1.55 1.80 l-1.50 0 1.05 -1.50z"/>
  <path d="M256 311.70 c0 -1.95 0.45 -1.90 2 0.30 l1.05 1.50 -1.50 0 c-1.45 0 -1.55 -0.15 -1.55 -1.80z"/>
  <path d="M32.25 306.50 c0.15 -0.25 0.95 -0.95 1.75 -1.50 l1.50 -1.05 0 1.50 c0 1.45 -0.15 1.55 -1.80 1.55 -1 0 -1.65 -0.20 -1.45 -0.50z"/>
  <path d="M244.85 302.15 c-0.20 -0.15 -0.35 -0.85 -0.35 -1.50 0 -0.95 -0.25 -1.15 -1.50 -1.15 -1 0 -1.50 -0.25 -1.50 -0.75 0 -0.40 -0.45 -0.75 -1 -0.75 -0.55 0 -1 -0.35 -1 -0.75 0 -0.40 -0.45 -0.75 -1 -0.75 -0.80 0 -1 -0.35 -1 -1.55 l0 -1.55 1.90 1.35 c3.05 2.30 8.60 6.85 8.90 7.30 0.30 0.50 -2.95 0.60 -3.45 0.10z"/>
  <path d="M305 291.25 c0 -6.90 0.05 -7.25 1 -7.25 0.95 0 1 0.35 1 7.25 0 6.90 -0.05 7.25 -1 7.25 -0.95 0 -1 -0.35 -1 -7.25z"/>
  <path d="M49.15 292.75 c1.80 -1.60 2.35 -1.55 2.35 0 0 1.10 -0.20 1.25 -1.85 1.25 l-1.90 -0.05 1.40 -1.20z"/>
 </g>
 <g fill="#10b981">
  <path d="M230 290.75 c0 -0.45 -0.45 -0.75 -1.25 -0.75 -1 0 -1.25 -0.25 -1.25 -1.25 0 -0.70 0.15 -1.25 0.30 -1.25 0.60 0 5.70 3.25 5.70 3.60 0 0.25 -0.80 0.40 -1.75 0.40 -1.20 0 -1.75 -0.25 -1.75 -0.75z"/>
  <path d="M54.50 289.60 c0 -0.40 2.60 -2.10 3.20 -2.10 0.15 0 0.30 0.55 0.30 1.25 0 1.10 -0.20 1.25 -1.75 1.25 -0.95 0 -1.75 -0.20 -1.75 -0.40z"/>
  <path d="M223 287.05 c0 -0.25 -0.65 -0.55 -1.50 -0.70 -1.20 -0.25 -1.50 -0.60 -1.50 -1.60 0 -1.15 0.10 -1.20 1.35 -0.70 2.15 0.80 5.15 2.60 5.15 3.05 0 0.20 -0.80 0.40 -1.75 0.40 -0.95 0 -1.75 -0.20 -1.75 -0.45z"/>
  <path d="M60 286.60 c0 -0.35 0.85 -0.90 3.15 -2 0.20 -0.10 0.35 0.40 0.35 1.10 0 1.15 -0.20 1.30 -1.75 1.30 -0.95 0 -1.75 -0.20 -1.75 -0.40z"/>
  <path d="M215.50 282.75 c0 -1.20 0.05 -1.25 1.60 -0.60 2.30 0.95 2.40 1.85 0.20 1.85 -1.60 0 -1.80 -0.15 -1.80 -1.25z"/>
  <path d="M69 282.55 c0 -0.60 0.25 -0.75 3.40 -2 l2.60 -1.05 0 1.25 c0 1 -0.25 1.25 -1.25 1.25 -0.70 0 -1.25 0.25 -1.25 0.50 0 0.30 -0.80 0.50 -1.75 0.50 -0.95 0 -1.75 -0.20 -1.75 -0.45z"/>
  <path d="M210.50 280.75 c0 -1.20 0.05 -1.25 1.60 -0.60 2.30 0.95 2.40 1.85 0.20 1.85 -1.60 0 -1.80 -0.15 -1.80 -1.25z"/>
  <path d="M199.65 278.35 c-1.60 -0.35 -2.15 -0.75 -2.15 -1.40 0 -1.15 0.20 -1.15 4.25 -0.15 2.05 0.50 3.25 1.10 3.25 1.50 0 0.80 -2.15 0.85 -5.35 0.05z"/>
  <path d="M82.50 277.80 c0 -0.65 1.40 -1.30 2.90 -1.30 0.30 0 0.60 0.45 0.60 1 0 0.80 -0.35 1 -1.75 1 -1.15 0 -1.75 -0.25 -1.75 -0.70z"/>
  <path d="M305 270 c0 -7.15 0.05 -7.50 1 -7.50 0.95 0 1 0.35 1 7.50 0 7.15 -0.05 7.50 -1 7.50 -0.95 0 -1 -0.35 -1 -7.50z"/>
  <path d="M89 276.30 c0 -0.65 1.40 -1.30 2.90 -1.30 0.30 0 0.60 0.45 0.60 1 0 0.80 -0.35 1 -1.75 1 -1.15 0 -1.75 -0.25 -1.75 -0.70z"/>
  <path d="M95 275.30 c0 -0.65 1.40 -1.30 2.90 -1.30 0.30 0 0.60 0.45 0.60 1 0 0.80 -0.35 1 -1.75 1 -1.15 0 -1.75 -0.25 -1.75 -0.70z"/>
  <path d="M186.50 275 c0 -1.05 0.50 -1.20 2.40 -0.70 1.80 0.50 1.35 1.70 -0.65 1.70 -1.40 0 -1.75 -0.20 -1.75 -1z"/>
  <path d="M99.50 274.80 c0 -0.65 1.40 -1.30 2.90 -1.30 0.30 0 0.60 0.45 0.60 1 0 0.80 -0.35 1 -1.75 1 -1.15 0 -1.75 -0.25 -1.75 -0.70z"/>
  <path d="M180.40 275.15 l-1.40 -0.20 0 -5.50 0 -5.45 1.90 0 c1.65 0.05 1.75 0.10 1 0.70 -0.75 0.55 -0.90 1.45 -0.90 4.65 l0 4 2 0.35 c1.30 0.20 2 0.55 2 1.05 0 0.75 -1.45 0.85 -4.60 0.40z"/>
  <path d="M96.65 260.75 l-1.40 -1.20 1.90 -0.05 c1.65 0 1.85 0.15 1.85 1.25 0 1.55 -0.55 1.60 -2.35 0z"/>
  <path d="M189 259.05 c0 -1.45 0.15 -1.55 1.80 -1.55 1.95 0 1.90 0.45 -0.30 2 l-1.50 1.05 0 -1.50z"/>
  <path d="M148.50 255.80 c0 -0.65 1.40 -1.30 2.90 -1.30 0.30 0 0.60 0.45 0.60 1 0 0.80 -0.35 1 -1.75 1 -1.15 0 -1.75 -0.25 -1.75 -0.70z"/>
  <path d="M194 255.05 c0 -1.45 0.15 -1.55 1.80 -1.55 1.95 0 1.90 0.45 -0.30 2 l-1.50 1.05 0 -1.50z"/>
  <path d="M130.50 255 c0 -1.05 0.50 -1.20 2.40 -0.70 1.80 0.50 1.35 1.70 -0.65 1.70 -1.40 0 -1.75 -0.20 -1.75 -1z"/>
  <path d="M87.50 253.50 l-1.75 -1.45 1.90 -0.05 c1.75 0 1.85 0.10 1.85 1.50 0 0.85 -0.05 1.50 -0.15 1.50 -0.05 0 -0.90 -0.65 -1.85 -1.50z"/>
  <path d="M305 248.90 c0 -4.80 0.35 -6.40 1.30 -6.40 0.55 0 0.70 1.10 0.70 5.25 0 4.90 -0.05 5.25 -1 5.25 -0.90 0 -1 -0.35 -1 -4.10z"/>
  <path d="M118 251.75 c0 -0.50 -0.50 -0.75 -1.50 -0.75 -1.85 0 -5 -1.45 -5 -2.35 0 -0.35 -0.55 -0.65 -1.25 -0.65 -1 0 -1.25 -0.25 -1.25 -1.30 0 -0.70 0.15 -1.20 0.40 -1.10 4.25 1.95 12.10 6.15 12.10 6.45 0 0.25 -0.80 0.45 -1.75 0.45 -1.20 0 -1.75 -0.25 -1.75 -0.75z"/>
  <path d="M167 250.55 c0 -0.30 1.40 -1.20 3.10 -2.05 1.70 -0.90 3.55 -1.90 4.10 -2.30 1.45 -1 1.80 -0.90 1.80 0.55 0 1.10 -0.20 1.25 -1.75 1.25 -1.40 0 -1.75 0.20 -1.75 1 0 0.65 -0.35 1 -1 1 -0.55 0 -1 0.25 -1 0.50 0 0.30 -0.80 0.50 -1.75 0.50 -0.95 0 -1.75 -0.20 -1.75 -0.45z"/>
  <path d="M202 247.40 c0 -1.70 0.15 -1.90 1.25 -1.90 1.05 0 1.25 -0.25 1.25 -1.50 0 -1.35 0.15 -1.50 1.55 -1.50 l1.50 0 -1 1.40 c-0.55 0.75 -1.80 2.25 -2.75 3.35 l-1.75 2 -0.05 -1.85z"/>
  <path d="M104.50 243.45 l0 -1.50 1.50 1.05 c2.20 1.55 2.25 2 0.30 2 -1.65 0 -1.80 -0.10 -1.80 -1.55z"/>
  <path d="M510.50 241.25 c0 -1.40 0.75 -1.70 1.20 -0.45 0.50 1.25 0.35 1.70 -0.45 1.70 -0.45 0 -0.75 -0.45 -0.75 -1.25z"/>
  <path d="M207.50 240.25 c0 -0.95 0.25 -1.75 0.50 -1.75 0.30 0 0.50 -0.35 0.50 -0.75 0 -0.45 0.45 -0.75 1.25 -0.75 0.70 0 1.25 0.20 1.25 0.40 0 0.55 -2.90 4.60 -3.25 4.60 -0.15 0 -0.25 -0.80 -0.25 -1.75z"/>
  <path d="M184.15 238.75 c0.75 -0.65 1.95 -1.85 2.60 -2.60 l1.20 -1.40 0.05 1.90 c0 1.30 -0.20 1.85 -0.75 1.85 -0.40 0 -0.75 0.35 -0.75 0.75 0 0.55 -0.55 0.75 -1.85 0.75 l-1.90 -0.05 1.40 -1.20z"/>
  <path d="M489.15 236.75 l-1.55 -1.75 1.70 0 c1.60 0 1.70 0.10 1.70 1.75 0 0.95 -0.05 1.75 -0.15 1.75 -0.10 0 -0.85 -0.80 -1.70 -1.75z"/>
  <path d="M306.50 235.70 c0 -1.05 0.90 -2.70 1.50 -2.70 0.30 0 0.50 0.80 0.50 1.75 0 1.40 -0.20 1.75 -1 1.75 -0.55 0 -1 -0.35 -1 -0.80z"/>
  <path d="M328 235 c0 -1.40 0.15 -1.50 1.75 -1.50 2.20 0 2.20 0.45 0 1.90 l-1.75 1.10 0 -1.50z"/>
  <path d="M508.30 234.90 c-0.45 -1.80 -0.35 -3.90 0.25 -3.90 0.55 0 1.95 3 1.95 4.25 0 1.20 -1.85 0.90 -2.20 -0.35z"/>
  <path d="M91.50 230.20 c0 -1.95 0.45 -1.90 2 0.30 l1.05 1.50 -1.50 0 c-1.45 0 -1.55 -0.15 -1.55 -1.80z"/>
  <path d="M193.15 228.25 c1.15 -1.75 2.25 -3.20 2.50 -3.25 0.20 0 0.35 0.80 0.35 1.75 0 1.40 -0.20 1.75 -1 1.75 -0.80 0 -1 0.35 -1 1.50 0 1.35 -0.15 1.50 -1.50 1.50 l-1.45 0 2.10 -3.25z"/>
  <path d="M69.30 229.05 c-0.15 -0.20 -0.50 -1 -0.75 -1.75 -0.50 -1.20 -0.40 -1.30 0.70 -1.30 1.10 0 1.25 0.20 1.25 1.75 0 1.65 -0.60 2.30 -1.20 1.30z"/>
  <path d="M88.50 226.25 c0 -0.70 -0.30 -1.25 -0.65 -1.25 -0.35 0 -1.05 -0.80 -1.50 -1.75 -0.90 -1.90 -1.15 -4.75 -0.40 -4.75 0.40 0 5.05 8.15 5.05 8.80 0 0.10 -0.55 0.20 -1.25 0.20 -1 0 -1.25 -0.25 -1.25 -1.25z"/>
  <path d="M215.50 225.80 c0 -1.60 0.15 -1.80 1.25 -1.80 1.20 0 1.25 0.05 0.60 1.60 -0.95 2.30 -1.85 2.40 -1.85 0.20z"/>
  <path d="M503.50 224.70 c0 -1.95 0.45 -1.90 2 0.30 l1.05 1.50 -1.50 0 c-1.45 0 -1.55 -0.15 -1.55 -1.80z"/>
  <path d="M313.75 222.50 c0.15 -0.25 0.95 -0.95 1.75 -1.50 l1.50 -1.05 0 1.50 c0 1.45 -0.15 1.55 -1.80 1.55 -1 0 -1.65 -0.20 -1.45 -0.50z"/>
  <path d="M217.50 220.75 c0 -1.40 0.20 -1.75 1 -1.75 1.10 0 1.30 1 0.50 2.55 -0.80 1.50 -1.50 1.15 -1.50 -0.80z"/>
  <path d="M498 220 c0 -0.80 -0.35 -1 -1.50 -1 -1.25 0 -1.50 -0.20 -1.50 -1.25 0 -0.70 0.15 -1.25 0.35 -1.25 0.50 0 5 3 5.65 3.80 0.55 0.60 0.35 0.70 -1.20 0.70 -1.45 0 -1.80 -0.20 -1.80 -1z"/>
  <path d="M64.80 217.90 c-0.50 -1.90 -0.35 -2.40 0.70 -2.40 0.80 0 1 0.35 1 1.75 0 2 -1.20 2.45 -1.70 0.65z"/>
  <path d="M323.10 216.40 c0.15 -0.35 0.95 -0.90 1.80 -1.25 1.55 -0.65 1.60 -0.60 1.60 0.60 0 1.10 -0.20 1.25 -1.80 1.25 -1.15 0 -1.70 -0.20 -1.60 -0.60z"/>
  <path d="M486.50 214.50 c0 -1.05 0.50 -1.20 2.40 -0.70 1.80 0.50 1.35 1.70 -0.65 1.70 -1.40 0 -1.75 -0.20 -1.75 -1z"/>
  <path d="M330 214.30 c0 -0.65 1.40 -1.30 2.90 -1.30 0.30 0 0.60 0.45 0.60 1 0 0.80 -0.35 1 -1.75 1 -1.15 0 -1.75 -0.25 -1.75 -0.70z"/>
  <path d="M220.50 210.55 c0 -0.50 0.15 -1.95 0.30 -3.25 0.25 -1.85 0.55 -2.30 1.30 -2.30 1.05 0 1.05 0.25 0.10 5.15 -0.30 1.50 -1.70 1.85 -1.70 0.40z"/>
  <path d="M221.50 202.75 c0 -1.40 0.20 -1.75 1 -1.75 1.05 0 1.20 0.50 0.70 2.40 -0.50 1.80 -1.70 1.35 -1.70 -0.65z"/>
  <path d="M61.80 202.40 c-0.50 -1.90 -0.35 -2.40 0.70 -2.40 0.80 0 1 0.35 1 1.75 0 2 -1.20 2.45 -1.70 0.65z"/>
  <path d="M222 157.75 c0 -0.95 0.25 -1.75 0.50 -1.75 0.30 0 0.50 -0.35 0.50 -0.75 0 -0.50 0.50 -0.75 1.50 -0.75 l1.55 0 -1.30 1.85 c-0.70 1.05 -1.25 2.15 -1.25 2.50 0 0.35 -0.35 0.65 -0.75 0.65 -0.50 0 -0.75 -0.55 -0.75 -1.75z"/>
  <path d="M60.40 156 l-1.40 -1.75 1.30 -0.15 c1.65 -0.20 1.80 -0.05 1.60 1.95 l-0.15 1.70 -1.35 -1.75z"/>
  <path d="M55.70 147.75 c-0.95 -2.30 -0.90 -3.25 0.25 -3.25 1 0 1.55 1.25 1.55 3.65 0 1.90 -0.90 1.70 -1.80 -0.40z"/>
  <path d="M228 147.15 c0 -2.40 0.55 -3.65 1.55 -3.65 1.15 0 1.20 0.95 0.25 3.25 -0.90 2.10 -1.80 2.30 -1.80 0.40z"/>
  <path d="M229.50 141.25 c0 -1.40 0.20 -1.75 1 -1.75 1.05 0 1.20 0.50 0.70 2.40 -0.50 1.80 -1.70 1.35 -1.70 -0.65z"/>
  <path d="M53.80 140.40 c-0.50 -1.90 -0.35 -2.40 0.70 -2.40 0.80 0 1 0.35 1 1.75 0 2 -1.20 2.45 -1.70 0.65z"/>
  <path d="M230 137.25 c0 -1.40 0.20 -1.75 1 -1.75 1.05 0 1.20 0.50 0.70 2.40 -0.50 1.80 -1.70 1.35 -1.70 -0.65z"/>
  <path d="M53.30 133.40 c-0.15 -0.65 -0.30 -1.90 -0.30 -2.75 0 -1.30 0.20 -1.65 1 -1.65 0.90 0 1 0.35 1 2.75 0 2 -0.20 2.75 -0.70 2.75 -0.35 0 -0.80 -0.50 -1 -1.10z"/>
  <path d="M53 111.15 c0 -3.60 0.40 -5.15 1.30 -5.15 0.55 0 0.70 0.95 0.70 4 0 3.65 -0.10 4 -1 4 -0.90 0 -1 -0.35 -1 -2.85z"/>
  <path d="M230 96.75 c0 -2 1.20 -2.45 1.70 -0.60 0.50 1.85 0.35 2.35 -0.70 2.35 -0.80 0 -1 -0.35 -1 -1.75z"/>
  <path d="M53.50 95.90 c0 -1.50 0.65 -2.90 1.30 -2.90 0.45 0 0.70 0.60 0.70 1.75 0 1.40 -0.20 1.75 -1 1.75 -0.55 0 -1 -0.30 -1 -0.60z"/>
  <path d="M229.50 91.75 c0 -2 1.20 -2.45 1.70 -0.60 0.50 1.85 0.35 2.35 -0.70 2.35 -0.80 0 -1 -0.35 -1 -1.75z"/>
  <path d="M228.50 86.25 c0 -2 1.20 -2.45 1.70 -0.60 0.50 1.85 0.35 2.35 -0.70 2.35 -0.80 0 -1 -0.35 -1 -1.75z"/>
  <path d="M226.80 80.90 c-0.45 -1.80 -0.35 -3.90 0.25 -3.90 0.55 0 1.95 3 1.95 4.25 0 1.20 -1.85 0.90 -2.20 -0.35z"/>
  <path d="M224.50 73.20 c0 -2.20 0.90 -2.10 1.85 0.20 0.65 1.55 0.60 1.60 -0.60 1.60 -1.10 0 -1.25 -0.20 -1.25 -1.80z"/>
  <path d="M220 64.75 c0 -0.80 -0.30 -1.25 -0.75 -1.25 -0.50 0 -0.75 -0.50 -0.75 -1.50 0 -1.15 -0.20 -1.50 -1 -1.50 -0.80 0 -1 -0.35 -1 -1.80 0 -1.55 0.10 -1.75 0.75 -1.20 0.80 0.65 5.25 7.60 5.25 8.15 0 0.20 -0.55 0.35 -1.25 0.35 -1 0 -1.25 -0.25 -1.25 -1.25z"/>
  <path d="M213 54.20 c0 -1.95 0.45 -1.90 2 0.30 l1.05 1.50 -1.50 0 c-1.45 0 -1.55 -0.15 -1.55 -1.80z"/>
  <path d="M73.65 51 c0.40 -0.60 1.25 -1.45 1.85 -1.85 1.05 -0.75 1.05 -0.70 0.90 0.90 -0.15 1.50 -0.35 1.70 -1.85 1.85 -1.60 0.15 -1.65 0.15 -0.90 -0.90z"/>
  <path d="M204 45.45 l0 -1.50 1.50 1.05 c2.20 1.55 2.25 2 0.30 2 -1.65 0 -1.80 -0.10 -1.80 -1.55z"/>
  <path d="M196.50 40.75 c0 -0.45 -0.45 -0.75 -1.25 -0.75 -1 0 -1.25 -0.25 -1.25 -1.25 0 -0.70 0.15 -1.25 0.30 -1.25 0.55 0 4.60 2.55 5.20 3.25 0.55 0.65 0.35 0.75 -1.20 0.75 -1.25 0 -1.80 -0.20 -1.80 -0.75z"/>
  <path d="M90.50 38.10 c0 -0.45 3 -2.25 5.15 -3.05 1.25 -0.50 1.35 -0.45 1.35 0.70 0 1.05 -0.25 1.25 -1.50 1.25 -1 0 -1.50 0.25 -1.50 0.75 0 0.50 -0.55 0.75 -1.75 0.75 -0.95 0 -1.75 -0.20 -1.75 -0.40z"/>
  <path d="M185 34.25 c0 -1.20 0.05 -1.25 1.60 -0.60 2.30 0.95 2.40 1.85 0.20 1.85 -1.60 0 -1.80 -0.15 -1.80 -1.25z"/>
  <path d="M180.40 33.65 c-1.10 -0.30 -1.20 -2.15 -0.15 -2.15 1.25 0 4.25 1.40 4.25 1.95 0 0.55 -2.45 0.65 -4.10 0.20z"/>
  <path d="M168.15 30.65 c-1.25 -0.15 -1.65 -0.45 -1.65 -1.25 0 -0.90 0.20 -0.95 1.90 -0.70 4.05 0.70 4.60 0.90 4.60 1.60 0 0.70 -1.20 0.80 -4.85 0.35z"/>
  <path d="M119.50 29.30 c0 -0.65 1.40 -1.30 2.90 -1.30 0.30 0 0.60 0.45 0.60 1 0 0.80 -0.35 1 -1.75 1 -1.15 0 -1.75 -0.25 -1.75 -0.70z"/>
  <path d="M161.50 29 c0 -1.05 0.80 -1.25 2.90 -0.70 1.95 0.55 1.35 1.70 -0.90 1.70 -1.65 0 -2 -0.15 -2 -1z"/>
 </g>
 <g fill="#111827">
  <path d="M6.25 483.05 c-2.55 -1.15 -5.05 -3.95 -5.70 -6.40 -0.70 -2.55 -0.75 -94.10 -0.05 -101.20 2.20 -22.30 10.55 -43.10 24.20 -60.20 3.75 -4.70 12.20 -13.15 16.80 -16.90 11.80 -9.55 28.35 -17.85 42.75 -21.55 5.20 -1.35 11.75 -2.50 17.15 -3.05 l3.10 -0.35 0 -3.85 0 -3.90 -4.15 -2.50 c-18.05 -11.05 -31.15 -28.60 -36.30 -48.65 -2.25 -8.85 -2.55 -12.90 -2.55 -35.85 l0 -21.15 -2.20 -3.20 c-2.45 -3.60 -4.05 -7.50 -5.05 -12.30 -1.75 -8.45 -1.25 -45.65 0.70 -55.05 3.25 -15.10 9.30 -26.30 20.25 -37.25 10.90 -10.85 21.95 -16.80 37.95 -20.30 4.90 -1.10 6.05 -1.15 29.10 -1.15 27 0 28.50 0.15 39.30 3.75 11.60 3.85 20.25 9.20 28.95 17.95 3.15 3.20 6.85 7.45 8.20 9.45 5.85 8.85 9.80 18.40 11.90 28.75 1.10 5.35 1.15 6.65 1.15 28.60 0 19.95 -0.10 23.40 -0.85 26 -1.45 5.30 -2.95 8.75 -5.15 12 l-2.20 3.15 -0.20 23.95 c-0.20 26.15 -0.30 27.20 -3.65 37.30 -6.05 18.45 -19.95 35.65 -36 44.65 l-3.25 1.80 0.10 3.95 0.15 3.90 2.75 0.30 c10.25 1.10 19.20 3.05 27.15 5.95 32.45 11.75 57.20 36.75 68.40 69.05 4.30 12.45 5.55 20 5.95 36.25 l0.30 12.75 45.50 0 45.50 0 0.15 -22.10 0.10 -22.10 -22.85 -0.15 c-22.40 -0.20 -22.95 -0.20 -26.15 -1.35 -8.50 -3 -15.20 -8.65 -18.60 -15.55 -3.75 -7.60 -3.65 -5.65 -3.60 -53.50 0.05 -38.25 0.15 -43.10 0.90 -45.95 2.45 -9.60 8.20 -16.75 16.55 -20.80 7.05 -3.45 1.95 -3.25 86.25 -3.25 75.55 0 76.30 0 80 1.05 5.35 1.45 9.70 4.05 13.75 8.15 3.85 3.95 6.05 7.65 7.85 13.30 l1.15 3.75 0 43.75 0 43.75 -1.15 3.75 c-2.90 9.30 -8.20 15.85 -15.75 19.45 -6.90 3.35 -8.95 3.55 -32.80 3.55 -11.55 0 -21.05 0.15 -21.15 0.40 -0.10 0.20 -0.10 10.20 0 22.25 l0.15 21.85 31.75 0 c25.50 0 32.05 0.15 33.35 0.70 2.15 0.85 4.65 3.80 5.30 6.15 0.75 2.70 0.75 69.20 0 71.90 -0.75 2.60 -4.10 5.95 -6.70 6.70 -1.45 0.40 -69.65 0.55 -249.25 0.55 -238.05 0 -247.30 -0.05 -249.25 -0.95z m180.40 -48.80 c0.10 -27.25 0.15 -29.10 1.05 -30.75 1.30 -2.45 2.25 -3.45 4.55 -4.70 2 -1.05 2.30 -1.05 37.45 -1.20 l35.45 -0.15 -0.30 -11.35 c-0.25 -12.20 -1.15 -18.85 -3.60 -27.25 -6.25 -21.35 -21.60 -40.95 -41.35 -52.80 -10.40 -6.20 -24.10 -10.85 -36.50 -12.30 -2.85 -0.35 -2.85 -0.35 -3.15 1.05 -3.15 14.10 -12 24.60 -24.55 29.15 -12.90 4.70 -25.80 2.55 -37.15 -6.15 -5.70 -4.30 -11.05 -12.70 -13 -20.35 -0.50 -2 -1.15 -3.75 -1.45 -3.85 -0.95 -0.30 -12.40 1.85 -17.35 3.30 -33.05 9.65 -58.05 36.75 -64.70 70.10 -1.85 9.30 -2.05 15.05 -2.05 56.40 l0 40.10 83.25 -0.10 83.30 -0.15 0.10 -29z m305.35 6.25 l0 -23 -142.50 0 -142.50 0 0 23 0 23 142.50 0 142.50 0 0 -23z m-71.20 -44.90 c-0.15 -1 -0.30 -10.90 -0.30 -21.95 l0 -20.15 -12 0 -12 0 0 21.90 c0 12.05 0.10 22.05 0.20 22.15 0.10 0.10 5.65 0.15 12.30 0.05 l12.15 -0.15 -0.35 -1.85z m64.95 -63.45 c2.30 -1.20 3.75 -2.70 5.05 -5.15 0.90 -1.65 0.95 -3.70 0.95 -44.05 l0 -42.30 -1.50 -2.40 c-1.10 -1.80 -2.25 -2.85 -4.20 -3.85 l-2.65 -1.40 -74.60 0 -74.60 0 -2.75 1.40 c-2 1 -3.05 1.95 -4.20 3.80 l-1.50 2.45 -0.15 41.55 c-0.10 29 0 42.10 0.40 43.45 0.95 3.25 4.15 6.20 8 7.40 0.70 0.20 34.65 0.35 75.50 0.30 l74.25 -0.10 2 -1.10z m-340 -26.20 c5.80 -1.05 10.55 -4.65 13.10 -9.80 1.55 -3.25 2.50 -12.10 1.95 -18.70 l-0.40 -4.30 -3.55 0.80 c-5.05 1.05 -23.75 1.05 -28.45 -0.05 -1.85 -0.40 -3.50 -0.65 -3.65 -0.50 -0.45 0.50 -0.25 15.40 0.25 18.15 1.45 7.50 7.10 13.20 14.35 14.45 3.40 0.55 3.20 0.55 6.40 -0.05z m8.90 -52 c22.85 -4.60 41.55 -22.45 47.15 -44.85 1.60 -6.50 2.30 -15.65 2.10 -28.35 -0.15 -10.15 -0.20 -10.50 -1.15 -10.40 -2.65 0.30 -118.20 0.15 -119.60 -0.15 l-1.65 -0.30 0 14.70 c0 11.25 0.20 15.85 0.80 19.45 2.30 13.40 7.45 23.35 17.15 33 9.40 9.45 19.65 14.85 32.50 17.15 6 1.10 16.70 1 22.70 -0.25z m45.95 -103.85 c4.65 -1.60 9.10 -6.05 10.40 -10.50 0.30 -1 0.70 -4.40 0.85 -7.45 l0.30 -5.65 -69.40 0 -69.35 0 0.20 6.15 c0.15 4.85 0.40 6.55 1.25 8.40 2.25 4.95 7.15 8.65 12.40 9.45 1.35 0.20 27.05 0.35 57 0.30 42.10 -0.05 54.90 -0.20 56.35 -0.70z m-19.20 -44.10 l30.60 0 0 -3.35 c0 -7.55 -2.40 -18 -5.60 -24.40 -5.70 -11.30 -14.25 -19.65 -25.55 -25 -8.90 -4.20 -16.15 -5.20 -38.85 -5.20 -25 -0.05 -33.30 1.65 -44.50 9.05 -14.85 9.75 -24 26.70 -24 44.45 l0 4.40 2.15 0.15 c1.15 0.10 18.55 0.10 38.60 0.05 20.10 -0.10 50.30 -0.15 67.15 -0.15z"/>
 </g>
 <g id="badge">
  <!-- Gold outer ring -->
  <circle cx="195" cy="345" r="24" fill="#f7ac70" />
  <!-- Dark navy blue inner circle -->
  <circle cx="195" cy="345" r="20" fill="#111827" />
  <!-- White stylized letter 'Z' -->
  <text x="195" y="353" font-family="Outfit, Inter, system-ui, sans-serif" font-size="24" font-weight="900" fill="#fffffe" text-anchor="middle">Z</text>
 </g>
 <g id="receipt_icon" transform="translate(320, 60)">
  <!-- Receipt shadow/back -->
  <path d="M5 8 L45 8 L45 78 L5 78 Z" fill="#e2e8f0" />
  <!-- Receipt paper (with zigzag bottom) -->
  <path d="M0 0 L40 0 L40 70 L35 66 L30 70 L25 66 L20 70 L15 66 L10 70 L5 66 L0 70 Z" fill="#fffffe" stroke="#111827" stroke-width="3" stroke-linejoin="round" />
  <!-- Receipt text lines -->
  <line x1="8" y1="12" x2="25" y2="12" stroke="#81c784" stroke-width="3" stroke-linecap="round" />
  <line x1="8" y1="22" x2="32" y2="22" stroke="#111827" stroke-width="2.5" stroke-linecap="round" />
  <line x1="8" y1="30" x2="28" y2="30" stroke="#111827" stroke-width="2.5" stroke-linecap="round" />
  <line x1="8" y1="38" x2="32" y2="38" stroke="#111827" stroke-width="2.5" stroke-linecap="round" />
  <line x1="8" y1="46" x2="22" y2="46" stroke="#111827" stroke-width="2.5" stroke-linecap="round" />
  <!-- A little checkmark or total box -->
  <path d="M8 56 L12 60 L20 52" fill="none" stroke="#81c784" stroke-width="3" stroke-linecap="round" stroke-linejoin="round" />
  <line x1="24" y1="56" x2="32" y2="56" stroke="#111827" stroke-width="3.5" stroke-linecap="round" />
 </g>
 <g id="scanner_icon" transform="translate(410, 60)">
  <!-- Laser Beam -->
  <line x1="-15" y1="18" x2="10" y2="18" stroke="#81c784" stroke-dasharray="3,3" stroke-width="3" stroke-linecap="round" />
  <!-- Scanner handle -->
  <path d="M28 35 L42 35 L38 68 L24 68 Z" fill="#67c5ca" stroke="#111827" stroke-width="3" stroke-linejoin="round" />
  <!-- Scanner main body/head -->
  <path d="M8 12 L35 6 L45 25 L38 35 L12 35 Z" fill="#111827" stroke="#111827" stroke-width="3" stroke-linejoin="round" />
  <!-- Scanner nose/bezel (where the laser comes out) -->
  <path d="M8 12 L12 35 L8 35 L4 12 Z" fill="#81c784" stroke="#111827" stroke-width="3" stroke-linejoin="round" />
  <!-- Trigger button -->
  <path d="M20 38 L25 38 L25 44 L20 42 Z" fill="#f7ac70" />
  <!-- Scanner back cap details -->
  <path d="M38 10 L43 22" stroke="#fffffe" stroke-width="2.5" stroke-linecap="round" />
 </g>
 <!-- Floating decorative elements -->
 <circle cx="395" cy="50" r="3" fill="#fffffe" />
 <circle cx="310" cy="110" r="2" fill="#e2e8f0" />
 <circle cx="480" cy="120" r="3.5" fill="#fffffe" />
 <path d="M 405 110 L 409 110 M 407 108 L 407 112" stroke="#f7ac70" stroke-width="2" stroke-linecap="round" />
 
 <!-- Store Canopy / Awning -->
 <g id="store_awning">
  <!-- Soft shadow under the awning -->
  <path d="M 0 18 Q 16 25, 32 18 Q 48 25, 64 18 Q 80 25, 96 18 Q 112 25, 128 18 Q 144 25, 160 18 Q 176 25, 192 18 Q 208 25, 224 18 Q 240 25, 256 18 Q 272 25, 288 18 Q 304 25, 320 18 Q 336 25, 352 18 Q 368 25, 384 18 Q 400 25, 416 18 Q 432 25, 448 18 Q 464 25, 480 18 Q 496 25, 512 18 L 512 28 L 0 28 Z" fill="#111827" opacity="0.15" />
  
  <!-- Green Stripes (scallops) -->
  <g fill="#388e3c" stroke="#111827" stroke-width="3" stroke-linejoin="round">
   <path d="M 0 0 L 32 0 L 32 18 Q 16 25, 0 18 Z" />
   <path d="M 64 0 L 96 0 L 96 18 Q 80 25, 64 18 Z" />
   <path d="M 128 0 L 160 0 L 160 18 Q 144 25, 128 18 Z" />
   <path d="M 192 0 L 224 0 L 224 18 Q 208 25, 192 18 Z" />
   <path d="M 256 0 L 288 0 L 288 18 Q 272 25, 256 18 Z" />
   <path d="M 320 0 L 352 0 L 352 18 Q 336 25, 320 18 Z" />
   <path d="M 384 0 L 416 0 L 416 18 Q 400 25, 384 18 Z" />
   <path d="M 448 0 L 480 0 L 480 18 Q 464 25, 448 18 Z" />
  </g>
  
  <!-- White Stripes (scallops) -->
  <g fill="#fffffe" stroke="#111827" stroke-width="3" stroke-linejoin="round">
   <path d="M 32 0 L 64 0 L 64 18 Q 48 25, 32 18 Z" />
   <path d="M 96 0 L 128 0 L 128 18 Q 112 25, 96 18 Z" />
   <path d="M 160 0 L 192 0 L 192 18 Q 176 25, 160 18 Z" />
   <path d="M 224 0 L 256 0 L 256 18 Q 240 25, 224 18 Z" />
   <path d="M 288 0 L 320 0 L 320 18 Q 304 25, 288 18 Z" />
   <path d="M 352 0 L 384 0 L 384 18 Q 368 25, 352 18 Z" />
   <path d="M 416 0 L 448 0 L 448 18 Q 432 25, 416 18 Z" />
   <path d="M 480 0 L 512 0 L 512 18 Q 496 25, 480 18 Z" />
  </g>
  
  <!-- Top Border Bar -->
  <rect x="0" y="0" width="512" height="6" fill="#111827" />
 </g>
 
 <!-- POS Screen Interface -->
 <g id="pos_screen_content">
  <!-- Clean background to cover entire screen (from X=331 to X=496, Y=225 to Y=334) using original light-blue color -->
  <rect x="331" y="225" width="165" height="109" fill="#d0dafc" rx="3" ry="3" />
  
  <!-- Original white screen highlight path, placed on top of background to prevent checkerboard transparency -->
  <path d="M417.35 331.15 c-4.65 -9 -9.85 -28.50 -9.85 -37.25 l0 -1.85 16.40 -0.15 c16.25 -0.15 16.35 -0.15 18.45 -1.35 4.90 -2.80 6.40 -8.10 3.35 -11.90 -0.80 -1.05 -2.50 -2.40 -3.70 -3 -2.15 -1.10 -2.60 -1.15 -18.10 -1.15 l-15.90 0 0 -3.35 c0 -4.10 1.10 -11.10 2.80 -17.90 1.90 -7.55 2.55 -9.50 5.60 -15.90 l2.80 -5.90 33 0.15 33.05 0.15 2.25 1.25 c3.10 1.75 4.95 4.60 5.40 8.25 0.25 1.65 0.35 21.35 0.30 43.75 -0.05 37.10 -0.15 40.95 -0.90 42.75 -1.10 2.60 -3.05 4.65 -5.55 5.80 -1.90 0.85 -3.95 0.95 -34.80 0.95 l-32.85 0 -1.75 -3.35z" fill="#fffffe" />
  
  <!-- Header Bar -->
  <rect x="333" y="250" width="160" height="9" fill="#111827" rx="1.5" />
  <text x="413" y="256.5" font-family="Outfit, Inter, system-ui, sans-serif" font-size="4" font-weight="900" fill="#fffffe" text-anchor="middle">ZAYNAHS POS</text>
  
  <!-- Items List -->
  <text x="338" y="268" font-family="Outfit, Inter, system-ui, sans-serif" font-size="5" font-weight="700" fill="#111827">APPLES</text>
  <text x="488" y="268" font-family="Outfit, Inter, system-ui, sans-serif" font-size="5" font-weight="700" fill="#111827" text-anchor="end">$1.50</text>
  
  <text x="338" y="276" font-family="Outfit, Inter, system-ui, sans-serif" font-size="5" font-weight="700" fill="#111827">MILK</text>
  <text x="488" y="276" font-family="Outfit, Inter, system-ui, sans-serif" font-size="5" font-weight="700" fill="#111827" text-anchor="end">$2.90</text>
  
  <text x="338" y="284" font-family="Outfit, Inter, system-ui, sans-serif" font-size="5" font-weight="700" fill="#111827">BREAD</text>
  <text x="488" y="284" font-family="Outfit, Inter, system-ui, sans-serif" font-size="5" font-weight="700" fill="#111827" text-anchor="end">$2.00</text>
  
  <!-- Divider Line -->
  <line x1="338" y1="289" x2="488" y2="289" stroke="#cbd5e1" stroke-width="0.75" />
  
  <!-- Total Row -->
  <text x="338" y="297" font-family="Outfit, Inter, system-ui, sans-serif" font-size="6" font-weight="900" fill="#10b981">TOTAL</text>
  <text x="488" y="297" font-family="Outfit, Inter, system-ui, sans-serif" font-size="6" font-weight="900" fill="#10b981" text-anchor="end">$6.40</text>
 </g>
 
 <!-- White Badge -->
 <rect x="56.5" y="382" width="80" height="22" fill="#fffffe" rx="11" ry="11" />
 
 <!-- Name Tag Text -->
 <text x="96.5" y="398" font-family="Outfit, Inter, system-ui, sans-serif" font-size="13" font-weight="900" fill="#111827" letter-spacing="0.5" text-anchor="middle">CASHIER</text>
</svg>