<svg xmlns="http://www.w3.org/2000/svg" viewBox="0 0 512 512" width="100%" height="100%">
  <defs>
    <linearGradient id="bgGrad" x1="0%" y1="0%" x2="100%" y2="100%">
      <stop offset="0%" stop-color="#10b981"/>
      <stop offset="100%" stop-color="#047857"/>
    </linearGradient>
    <filter id="receiptShadow" x="-30%" y="-30%" width="160%" height="160%">
      <feDropShadow dx="0" dy="20" stdDeviation="25" flood-color="#000" flood-opacity="0.45"/>
    </filter>
    <filter id="textShadow">
      <feDropShadow dx="0" dy="1" stdDeviation="1" flood-color="#000" flood-opacity="0.1"/>
    </filter>
  </defs>

  <rect width="512" height="512" rx="115" fill="url(#bgGrad)"/>
  
  <rect width="506" height="506" x="3" y="3" rx="112" fill="none" stroke="rgba(255,255,255,0.25)" stroke-width="4"/>

  <path d="M 150 55 
           H 362 
           V 425 
           L 352 440 L 342 425 L 332 440 L 322 425 
           L 312 440 L 302 425 L 292 440 L 282 425 
           L 272 440 L 262 425 L 252 440 L 242 425 
           L 232 440 L 222 425 L 212 440 L 202 425 
           L 192 440 L 182 425 L 172 440 L 162 425 
           L 152 440 L 150 430 Z" 
        fill="#ffffff" 
        filter="url(#receiptShadow)"/>

  <g filter="url(#textShadow)">
    
    <g transform="translate(232, 70)">
      <circle cx="16" cy="16" r="12" fill="#F43F5E" opacity="0.9"/>
      <circle cx="32" cy="16" r="12" fill="#3B82F6" opacity="0.9"/>
      <circle cx="24" cy="28" r="12" fill="#FBBF24" opacity="0.9"/>
    </g>

    <rect x="216" y="112" width="80" height="8" rx="3" fill="#1f2937"/>
    <rect x="226" y="125" width="60" height="5" rx="2" fill="#9CA3AF"/>
    
    <line x1="165" y1="142" x2="347" y2="142" stroke="#D1D5DB" stroke-width="2" stroke-dasharray="4,6" stroke-linecap="round"/>

    <rect x="165" y="152" width="55" height="6" rx="2" fill="#6B7280"/>
    <rect x="282" y="152" width="65" height="6" rx="2" fill="#6B7280"/>

    <line x1="165" y1="168" x2="347" y2="168" stroke="#D1D5DB" stroke-width="2" stroke-dasharray="4,6" stroke-linecap="round"/>

    <rect x="165" y="182" width="12" height="12" rx="4" fill="#3B82F6" />
    <rect x="185" y="184" width="85" height="8" rx="3" fill="#374151" />
    <rect x="310" y="184" width="37" height="8" rx="3" fill="#111827" />
    
    <rect x="165" y="202" width="12" height="12" rx="4" fill="#10B981" />
    <rect x="185" y="204" width="105" height="8" rx="3" fill="#374151" />
    <rect x="310" y="204" width="37" height="8" rx="3" fill="#111827" />
    
    <rect x="165" y="222" width="12" height="12" rx="4" fill="#F59E0B" />
    <rect x="185" y="224" width="75" height="8" rx="3" fill="#374151" />
    <rect x="310" y="224" width="37" height="8" rx="3" fill="#111827" />
    
    <rect x="165" y="242" width="12" height="12" rx="4" fill="#8B5CF6" />
    <rect x="185" y="244" width="95" height="8" rx="3" fill="#374151" />
    <rect x="310" y="244" width="37" height="8" rx="3" fill="#111827" />

    <line x1="165" y1="268" x2="347" y2="268" stroke="#D1D5DB" stroke-width="2" stroke-dasharray="4,6" stroke-linecap="round"/>

    <rect x="165" y="282" width="55" height="8" rx="3" fill="#6B7280" />
    <rect x="310" y="282" width="37" height="8" rx="3" fill="#6B7280" />

    <rect x="165" y="297" width="35" height="7" rx="2" fill="#9CA3AF" />
    <rect x="310" y="297" width="37" height="7" rx="2" fill="#9CA3AF" />

    <rect x="165" y="312" width="60" height="7" rx="2" fill="#EF4444" />
    <rect x="310" y="312" width="37" height="7" rx="2" fill="#EF4444" />

    <line x1="165" y1="328" x2="347" y2="328" stroke="#1f2937" stroke-width="2" stroke-linecap="round"/>
    <line x1="165" y1="334" x2="347" y2="334" stroke="#1f2937" stroke-width="2" stroke-linecap="round"/>

    <rect x="165" y="348" width="55" height="14" rx="4" fill="#10B981" />
    <rect x="285" y="348" width="62" height="14" rx="4" fill="#10B981" />

    <line x1="165" y1="375" x2="347" y2="375" stroke="#D1D5DB" stroke-width="2" stroke-dasharray="4,6" stroke-linecap="round"/>

    <rect x="206" y="387" width="100" height="6" rx="3" fill="#4B5563" />

    <g transform="translate(181, 402)" fill="#1F2937">
      <rect x="0" y="0" width="5" height="22" rx="1" />
      <rect x="8" y="0" width="3" height="22" rx="1" />
      <rect x="14" y="0" width="7" height="22" rx="1" />
      <rect x="24" y="0" width="4" height="22" rx="1" />
      <rect x="31" y="0" width="8" height="22" rx="1" />
      <rect x="42" y="0" width="3" height="22" rx="1" />
      <rect x="48" y="0" width="6" height="22" rx="1" />
      <rect x="57" y="0" width="5" height="22" rx="1" />
      <rect x="65" y="0" width="3" height="22" rx="1" />
      <rect x="71" y="0" width="9" height="22" rx="1" />
      <rect x="83" y="0" width="4" height="22" rx="1" />
      <rect x="90" y="0" width="7" height="22" rx="1" />
      <rect x="100" y="0" width="3" height="22" rx="1" />
      <rect x="106" y="0" width="6" height="22" rx="1" />
      <rect x="115" y="0" width="8" height="22" rx="1" />
      <rect x="126" y="0" width="4" height="22" rx="1" />
      <rect x="133" y="0" width="5" height="22" rx="1" />
      <rect x="141" y="0" width="9" height="22" rx="1" />
    </g>
  </g>

  <rect x="150" y="55" width="212" height="370" fill="url(#bgGrad)" opacity="0.03" style="mix-blend-mode: multiply;"/>
  
</svg>